<?xml version="1.0" encoding="utf-8" ?>
<svg baseProfile="full" height="2000px" version="1.1" width="2000px" xmlns="http://www.w3.org/2000/svg" xmlns:ev="http://www.w3.org/2001/xml-events" xmlns:xlink="http://www.w3.org/1999/xlink"><defs><clipPath id="border_clip"><rect height="2000" width="2000" x="0" y="0" /></clipPath></defs><line clip-path="url(#border_clip)" stroke="#00ff00" stroke-linecap="round" stroke-width="1" x1="0.0" x2="350.0" y1="600.0" y2="600.0" /><line clip-path="url(#border_clip)" stroke="#00ff00" stroke-linecap="round" stroke-width="1" x1="350.0" x2="350.0" y1="600.0" y2="0.0" /><line clip-path="url(#border_clip)" stroke="#00ff00" stroke-linecap="round" stroke-width="1" x1="350.0" x2="0.0" y1="0.0" y2="0.0" /><line clip-path="url(#border_clip)" stroke="#00ff00" stroke-linecap="round" stroke-width="1" x1="0.0" x2="-0.0" y1="0.0" y2="600.0" /><line clip-path="url(#border_clip)" stroke="#00ff00" stroke-linecap="round" stroke-width="1" x1="400.0" x2="750.0" y1="600.0" y2="600.0" /><line clip-path="url(#border_clip)" stroke="#00ff00" stroke-linecap="round" stroke-width="1" x1="750.0" x2="750.0" y1="600.0" y2="0.0" /><line clip-path="url(#border_clip)" stroke="#00ff00" stroke-linecap="round" stroke-width="1" x1="750.0" x2="400.0" y1="0.0" y2="0.0" /><line clip-path="url(#border_clip)" stroke="#00ff00" stroke-linecap="round" stroke-width="1" x1="400.0" x2="400.0" y1="0.0" y2="600.0" /><line clip-path="url(#border_clip)" stroke="#00ff00" stroke-linecap="round" stroke-width="1" x1="800.0" x2="1150.0" y1="600.0" y2="600.0" /><line clip-path="url(#border_clip)" stroke="#00ff00" stroke-linecap="round" stroke-width="1" x1="1150.0" x2="1150.0" y1="600.0" y2="0.0" /><line clip-path="url(#border_clip)" stroke="#00ff00" stroke-linecap="round" stroke-width="1" x1="1150.0" x2="800.0" y1="0.0" y2="0.0" /><line clip-path="url(#border_clip)" stroke="#00ff00" stroke-linecap="round" stroke-width="1" x1="800.0" x2="800.0" y1="0.0" y2="600.0" /><line clip-path="url(#border_clip)" stroke="#00ff00" stroke-linecap="round" stroke-width="1" x1="50.0" x2="50.0" y1="400.0" y2="400.0" /><line clip-path="url(#border_clip)" stroke="#00ff00" stroke-linecap="round" stroke-width="1" x1="50.0" x2="300.0" y1="400.0" y2="400.0" /><line clip-path="url(#border_clip)" stroke="#00ff00" stroke-linecap="round" stroke-width="1" x1="300.0" x2="300.0" y1="400.0" y2="250.0" /><line clip-path="url(#border_clip)" stroke="#00ff00" stroke-linecap="round" stroke-width="1" x1="300.0" x2="50.0" y1="250.0" y2="250.0" /><line clip-path="url(#border_clip)" stroke="#00ff00" stroke-linecap="round" stroke-width="1" x1="50.0" x2="50.0" y1="250.0" y2="400.0" /><polygon clip-path="url(#border_clip)" fill="#ffffff" fill-rule="evenodd" points="50.0,400.0 300.0,400.0 300.0,250.0 50.0,250.0 50.0,400.0" /><line clip-path="url(#border_clip)" stroke="#00ff00" stroke-linecap="round" stroke-width="1" x1="50.0" x2="300.0" y1="400.0" y2="400.0" /><line clip-path="url(#border_clip)" stroke="#00ff00" stroke-linecap="round" stroke-width="1" x1="300.0" x2="300.0" y1="400.0" y2="250.0" /><line clip-path="url(#border_clip)" stroke="#00ff00" stroke-linecap="round" stroke-width="1" x1="300.0" x2="50.0" y1="250.0" y2="250.0" /><line clip-path="url(#border_clip)" stroke="#00ff00" stroke-linecap="round" stroke-width="1" x1="50.0" x2="50.0" y1="250.0" y2="400.0" /><line clip-path="url(#border_clip)" stroke="#00ff00" stroke-linecap="round" stroke-width="1" x1="50.0" x2="50.0" y1="400.0" y2="400.0" /><line clip-path="url(#border_clip)" stroke="#0000ff" stroke-linecap="round" stroke-width="1" x1="50.0" x2="50.0" y1="355.0" y2="355.0" /><line clip-path="url(#border_clip)" stroke="#0000ff" stroke-linecap="round" stroke-width="1" x1="50.0" x2="59.567" y1="355.0" y2="353.097" /><line clip-path="url(#border_clip)" stroke="#0000ff" stroke-linecap="round" stroke-width="1" x1="59.567" x2="67.678" y1="353.097" y2="347.678" /><line clip-path="url(#border_clip)" stroke="#0000ff" stroke-linecap="round" stroke-width="1" x1="67.678" x2="73.097" y1="347.678" y2="339.567" /><line clip-path="url(#border_clip)" stroke="#0000ff" stroke-linecap="round" stroke-width="1" x1="73.097" x2="75.0" y1="339.567" y2="330.0" /><line clip-path="url(#border_clip)" stroke="#0000ff" stroke-linecap="round" stroke-width="1" x1="75.0" x2="73.097" y1="330.0" y2="320.433" /><line clip-path="url(#border_clip)" stroke="#0000ff" stroke-linecap="round" stroke-width="1" x1="73.097" x2="67.678" y1="320.433" y2="312.322" /><line clip-path="url(#border_clip)" stroke="#0000ff" stroke-linecap="round" stroke-width="1" x1="67.678" x2="59.567" y1="312.322" y2="306.903" /><line clip-path="url(#border_clip)" stroke="#0000ff" stroke-linecap="round" stroke-width="1" x1="59.567" x2="50.0" y1="306.903" y2="305.0" /><line clip-path="url(#border_clip)" stroke="#0000ff" stroke-linecap="round" stroke-width="1" x1="50.0" x2="40.433" y1="305.0" y2="306.903" /><line clip-path="url(#border_clip)" stroke="#0000ff" stroke-linecap="round" stroke-width="1" x1="40.433" x2="32.322" y1="306.903" y2="312.322" /><line clip-path="url(#border_clip)" stroke="#0000ff" stroke-linecap="round" stroke-width="1" x1="32.322" x2="26.903" y1="312.322" y2="320.433" /><line clip-path="url(#border_clip)" stroke="#0000ff" stroke-linecap="round" stroke-width="1" x1="26.903" x2="25.0" y1="320.433" y2="330.0" /><line clip-path="url(#border_clip)" stroke="#0000ff" stroke-linecap="round" stroke-width="1" x1="25.0" x2="26.903" y1="330.0" y2="339.567" /><line clip-path="url(#border_clip)" stroke="#0000ff" stroke-linecap="round" stroke-width="1" x1="26.903" x2="32.322" y1="339.567" y2="347.678" /><line clip-path="url(#border_clip)" stroke="#0000ff" stroke-linecap="round" stroke-width="1" x1="32.322" x2="40.433" y1="347.678" y2="353.097" /><line clip-path="url(#border_clip)" stroke="#0000ff" stroke-linecap="round" stroke-width="1" x1="40.433" x2="50.0" y1="353.097" y2="355.0" /><polygon clip-path="url(#border_clip)" fill="#0000ff" fill-rule="evenodd" points="50.0,355.0 59.567,353.097 67.678,347.678 73.097,339.567 75.0,330.0 73.097,320.433 67.678,312.322 59.567,306.903 50.0,305.0 40.433,306.903 32.322,312.322 26.903,320.433 25.0,330.0 26.903,339.567 32.322,347.678 40.433,353.097 50.0,355.0" /><line clip-path="url(#border_clip)" stroke="#0000ff" stroke-linecap="round" stroke-width="1" x1="50.0" x2="59.567" y1="355.0" y2="353.097" /><line clip-path="url(#border_clip)" stroke="#0000ff" stroke-linecap="round" stroke-width="1" x1="59.567" x2="67.678" y1="353.097" y2="347.678" /><line clip-path="url(#border_clip)" stroke="#0000ff" stroke-linecap="round" stroke-width="1" x1="67.678" x2="73.097" y1="347.678" y2="339.567" /><line clip-path="url(#border_clip)" stroke="#0000ff" stroke-linecap="round" stroke-width="1" x1="73.097" x2="75.0" y1="339.567" y2="330.0" /><line clip-path="url(#border_clip)" stroke="#0000ff" stroke-linecap="round" stroke-width="1" x1="75.0" x2="73.097" y1="330.0" y2="320.433" /><line clip-path="url(#border_clip)" stroke="#0000ff" stroke-linecap="round" stroke-width="1" x1="73.097" x2="67.678" y1="320.433" y2="312.322" /><line clip-path="url(#border_clip)" stroke="#0000ff" stroke-linecap="round" stroke-width="1" x1="67.678" x2="59.567" y1="312.322" y2="306.903" /><line clip-path="url(#border_clip)" stroke="#0000ff" stroke-linecap="round" stroke-width="1" x1="59.567" x2="50.0" y1="306.903" y2="305.0" /><line clip-path="url(#border_clip)" stroke="#0000ff" stroke-linecap="round" stroke-width="1" x1="50.0" x2="40.433" y1="305.0" y2="306.903" /><line clip-path="url(#border_clip)" stroke="#0000ff" stroke-linecap="round" stroke-width="1" x1="40.433" x2="32.322" y1="306.903" y2="312.322" /><line clip-path="url(#border_clip)" stroke="#0000ff" stroke-linecap="round" stroke-width="1" x1="32.322" x2="26.903" y1="312.322" y2="320.433" /><line clip-path="url(#border_clip)" stroke="#0000ff" stroke-linecap="round" stroke-width="1" x1="26.903" x2="25.0" y1="320.433" y2="330.0" /><line clip-path="url(#border_clip)" stroke="#0000ff" stroke-linecap="round" stroke-width="1" x1="25.0" x2="26.903" y1="330.0" y2="339.567" /><line clip-path="url(#border_clip)" stroke="#0000ff" stroke-linecap="round" stroke-width="1" x1="26.903" x2="32.322" y1="339.567" y2="347.678" /><line clip-path="url(#border_clip)" stroke="#0000ff" stroke-linecap="round" stroke-width="1" x1="32.322" x2="40.433" y1="347.678" y2="353.097" /><line clip-path="url(#border_clip)" stroke="#0000ff" stroke-linecap="round" stroke-width="1" x1="40.433" x2="50.0" y1="353.097" y2="355.0" /><line clip-path="url(#border_clip)" stroke="#0000ff" stroke-linecap="round" stroke-width="1" x1="50.0" x2="50.0" y1="355.0" y2="355.0" /><line clip-path="url(#border_clip)" stroke="#0000ff" stroke-linecap="round" stroke-width="1" x1="50.0" x2="35.0" y1="355.0" y2="338.0" /><text clip-path="url(#border_clip)" fill="#ffffff" style="font-family: Arial; font-size: 13.2; font-style: normal;" text-anchor="start" x="35.0" y="334.4">AB56</text><line clip-path="url(#border_clip)" stroke="#0000ff" stroke-linecap="round" stroke-width="1" x1="300.0" x2="300.0" y1="355.0" y2="355.0" /><line clip-path="url(#border_clip)" stroke="#0000ff" stroke-linecap="round" stroke-width="1" x1="300.0" x2="309.567" y1="355.0" y2="353.097" /><line clip-path="url(#border_clip)" stroke="#0000ff" stroke-linecap="round" stroke-width="1" x1="309.567" x2="317.678" y1="353.097" y2="347.678" /><line clip-path="url(#border_clip)" stroke="#0000ff" stroke-linecap="round" stroke-width="1" x1="317.678" x2="323.097" y1="347.678" y2="339.567" /><line clip-path="url(#border_clip)" stroke="#0000ff" stroke-linecap="round" stroke-width="1" x1="323.097" x2="325.0" y1="339.567" y2="330.0" /><line clip-path="url(#border_clip)" stroke="#0000ff" stroke-linecap="round" stroke-width="1" x1="325.0" x2="323.097" y1="330.0" y2="320.433" /><line clip-path="url(#border_clip)" stroke="#0000ff" stroke-linecap="round" stroke-width="1" x1="323.097" x2="317.678" y1="320.433" y2="312.322" /><line clip-path="url(#border_clip)" stroke="#0000ff" stroke-linecap="round" stroke-width="1" x1="317.678" x2="309.567" y1="312.322" y2="306.903" /><line clip-path="url(#border_clip)" stroke="#0000ff" stroke-linecap="round" stroke-width="1" x1="309.567" x2="300.0" y1="306.903" y2="305.0" /><line clip-path="url(#border_clip)" stroke="#0000ff" stroke-linecap="round" stroke-width="1" x1="300.0" x2="290.433" y1="305.0" y2="306.903" /><line clip-path="url(#border_clip)" stroke="#0000ff" stroke-linecap="round" stroke-width="1" x1="290.433" x2="282.322" y1="306.903" y2="312.322" /><line clip-path="url(#border_clip)" stroke="#0000ff" stroke-linecap="round" stroke-width="1" x1="282.322" x2="276.903" y1="312.322" y2="320.433" /><line clip-path="url(#border_clip)" stroke="#0000ff" stroke-linecap="round" stroke-width="1" x1="276.903" x2="275.0" y1="320.433" y2="330.0" /><line clip-path="url(#border_clip)" stroke="#0000ff" stroke-linecap="round" stroke-width="1" x1="275.0" x2="276.903" y1="330.0" y2="339.567" /><line clip-path="url(#border_clip)" stroke="#0000ff" stroke-linecap="round" stroke-width="1" x1="276.903" x2="282.322" y1="339.567" y2="347.678" /><line clip-path="url(#border_clip)" stroke="#0000ff" stroke-linecap="round" stroke-width="1" x1="282.322" x2="290.433" y1="347.678" y2="353.097" /><line clip-path="url(#border_clip)" stroke="#0000ff" stroke-linecap="round" stroke-width="1" x1="290.433" x2="300.0" y1="353.097" y2="355.0" /><polygon clip-path="url(#border_clip)" fill="#0000ff" fill-rule="evenodd" points="300.0,355.0 309.567,353.097 317.678,347.678 323.097,339.567 325.0,330.0 323.097,320.433 317.678,312.322 309.567,306.903 300.0,305.0 290.433,306.903 282.322,312.322 276.903,320.433 275.0,330.0 276.903,339.567 282.322,347.678 290.433,353.097 300.0,355.0" /><line clip-path="url(#border_clip)" stroke="#0000ff" stroke-linecap="round" stroke-width="1" x1="300.0" x2="309.567" y1="355.0" y2="353.097" /><line clip-path="url(#border_clip)" stroke="#0000ff" stroke-linecap="round" stroke-width="1" x1="309.567" x2="317.678" y1="353.097" y2="347.678" /><line clip-path="url(#border_clip)" stroke="#0000ff" stroke-linecap="round" stroke-width="1" x1="317.678" x2="323.097" y1="347.678" y2="339.567" /><line clip-path="url(#border_clip)" stroke="#0000ff" stroke-linecap="round" stroke-width="1" x1="323.097" x2="325.0" y1="339.567" y2="330.0" /><line clip-path="url(#border_clip)" stroke="#0000ff" stroke-linecap="round" stroke-width="1" x1="325.0" x2="323.097" y1="330.0" y2="320.433" /><line clip-path="url(#border_clip)" stroke="#0000ff" stroke-linecap="round" stroke-width="1" x1="323.097" x2="317.678" y1="320.433" y2="312.322" /><line clip-path="url(#border_clip)" stroke="#0000ff" stroke-linecap="round" stroke-width="1" x1="317.678" x2="309.567" y1="312.322" y2="306.903" /><line clip-path="url(#border_clip)" stroke="#0000ff" stroke-linecap="round" stroke-width="1" x1="309.567" x2="300.0" y1="306.903" y2="305.0" /><line clip-path="url(#border_clip)" stroke="#0000ff" stroke-linecap="round" stroke-width="1" x1="300.0" x2="290.433" y1="305.0" y2="306.903" /><line clip-path="url(#border_clip)" stroke="#0000ff" stroke-linecap="round" stroke-width="1" x1="290.433" x2="282.322" y1="306.903" y2="312.322" /><line clip-path="url(#border_clip)" stroke="#0000ff" stroke-linecap="round" stroke-width="1" x1="282.322" x2="276.903" y1="312.322" y2="320.433" /><line clip-path="url(#border_clip)" stroke="#0000ff" stroke-linecap="round" stroke-width="1" x1="276.903" x2="275.0" y1="320.433" y2="330.0" /><line clip-path="url(#border_clip)" stroke="#0000ff" stroke-linecap="round" stroke-width="1" x1="275.0" x2="276.903" y1="330.0" y2="339.567" /><line clip-path="url(#border_clip)" stroke="#0000ff" stroke-linecap="round" stroke-width="1" x1="276.903" x2="282.322" y1="339.567" y2="347.678" /><line clip-path="url(#border_clip)" stroke="#0000ff" stroke-linecap="round" stroke-width="1" x1="282.322" x2="290.433" y1="347.678" y2="353.097" /><line clip-path="url(#border_clip)" stroke="#0000ff" stroke-linecap="round" stroke-width="1" x1="290.433" x2="300.0" y1="353.097" y2="355.0" /><line clip-path="url(#border_clip)" stroke="#0000ff" stroke-linecap="round" stroke-width="1" x1="300.0" x2="300.0" y1="355.0" y2="355.0" /><text clip-path="url(#border_clip)" fill="#ffffff" style="font-family: Arial; font-size: 13.2; font-style: normal;" text-anchor="start" x="285.0" y="338.4">KJ65</text><text clip-path="url(#border_clip)" fill="#000000" style="font-family: Arial; font-size: 13.2; font-style: normal;" text-anchor="start" x="90.0" y="351.4">Cras Suscipit hendrerit feu</text><line clip-path="url(#border_clip)" stroke="#000000" stroke-linecap="round" stroke-width="1" x1="80.0" x2="80.0" y1="310.0" y2="310.0" /><line clip-path="url(#border_clip)" stroke="#000000" stroke-linecap="round" stroke-width="1" x1="80.0" x2="260.0" y1="310.0" y2="310.0" /><line clip-path="url(#border_clip)" stroke="#000000" stroke-linecap="round" stroke-width="1" x1="260.0" x2="260.0" y1="310.0" y2="300.0" /><line clip-path="url(#border_clip)" stroke="#000000" stroke-linecap="round" stroke-width="1" x1="260.0" x2="80.0" y1="300.0" y2="300.0" /><line clip-path="url(#border_clip)" stroke="#000000" stroke-linecap="round" stroke-width="1" x1="80.0" x2="80.0" y1="300.0" y2="310.0" /><polygon clip-path="url(#border_clip)" fill="#00ff00" fill-rule="evenodd" points="80.0,310.0 260.0,310.0 260.0,300.0 80.0,300.0 80.0,310.0" /><line clip-path="url(#border_clip)" stroke="#000000" stroke-linecap="round" stroke-width="1" x1="80.0" x2="260.0" y1="310.0" y2="310.0" /><line clip-path="url(#border_clip)" stroke="#000000" stroke-linecap="round" stroke-width="1" x1="260.0" x2="260.0" y1="310.0" y2="300.0" /><line clip-path="url(#border_clip)" stroke="#000000" stroke-linecap="round" stroke-width="1" x1="260.0" x2="80.0" y1="300.0" y2="300.0" /><line clip-path="url(#border_clip)" stroke="#000000" stroke-linecap="round" stroke-width="1" x1="80.0" x2="80.0" y1="300.0" y2="310.0" /><line clip-path="url(#border_clip)" stroke="#000000" stroke-linecap="round" stroke-width="1" x1="80.0" x2="80.0" y1="310.0" y2="310.0" /><line clip-path="url(#border_clip)" stroke="#000000" stroke-linecap="round" stroke-width="1" x1="80.0" x2="260.0" y1="370.0" y2="370.0" /><line clip-path="url(#border_clip)" stroke="#000000" stroke-linecap="round" stroke-width="1" x1="260.0" x2="260.0" y1="370.0" y2="320.0" /><line clip-path="url(#border_clip)" stroke="#000000" stroke-linecap="round" stroke-width="1" x1="260.0" x2="80.0" y1="320.0" y2="320.0" /><line clip-path="url(#border_clip)" stroke="#000000" stroke-linecap="round" stroke-width="1" x1="80.0" x2="80.0" y1="320.0" y2="370.0" /><line clip-path="url(#border_clip)" stroke="#00ff00" stroke-linecap="round" stroke-width="1" x1="0.0" x2="350.0" y1="600.0" y2="600.0" /><line clip-path="url(#border_clip)" stroke="#00ff00" stroke-linecap="round" stroke-width="1" x1="350.0" x2="350.0" y1="600.0" y2="0.0" /><line clip-path="url(#border_clip)" stroke="#00ff00" stroke-linecap="round" stroke-width="1" x1="350.0" x2="0.0" y1="0.0" y2="-0.0" /><line clip-path="url(#border_clip)" stroke="#00ff00" stroke-linecap="round" stroke-width="1" x1="0.0" x2="-0.0" y1="-0.0" y2="600.0" /><line clip-path="url(#border_clip)" stroke="#00ff00" stroke-linecap="round" stroke-width="1" x1="400.0" x2="750.0" y1="600.0" y2="600.0" /><line clip-path="url(#border_clip)" stroke="#00ff00" stroke-linecap="round" stroke-width="1" x1="750.0" x2="750.0" y1="600.0" y2="0.0" /><line clip-path="url(#border_clip)" stroke="#00ff00" stroke-linecap="round" stroke-width="1" x1="750.0" x2="400.0" y1="0.0" y2="0.0" /><line clip-path="url(#border_clip)" stroke="#00ff00" stroke-linecap="round" stroke-width="1" x1="400.0" x2="400.0" y1="0.0" y2="600.0" /><line clip-path="url(#border_clip)" stroke="#00ff00" stroke-linecap="round" stroke-width="1" x1="800.0" x2="1150.0" y1="600.0" y2="600.0" /><line clip-path="url(#border_clip)" stroke="#00ff00" stroke-linecap="round" stroke-width="1" x1="1150.0" x2="1150.0" y1="600.0" y2="0.0" /><line clip-path="url(#border_clip)" stroke="#00ff00" stroke-linecap="round" stroke-width="1" x1="1150.0" x2="800.0" y1="0.0" y2="0.0" /><line clip-path="url(#border_clip)" stroke="#00ff00" stroke-linecap="round" stroke-width="1" x1="800.0" x2="800.0" y1="0.0" y2="600.0" /><line clip-path="url(#border_clip)" stroke="#00ff00" stroke-linecap="round" stroke-width="1" x1="450.0" x2="450.0" y1="400.0" y2="400.0" /><line clip-path="url(#border_clip)" stroke="#00ff00" stroke-linecap="round" stroke-width="1" x1="450.0" x2="700.0" y1="400.0" y2="400.0" /><line clip-path="url(#border_clip)" stroke="#00ff00" stroke-linecap="round" stroke-width="1" x1="700.0" x2="700.0" y1="400.0" y2="250.0" /><line clip-path="url(#border_clip)" stroke="#00ff00" stroke-linecap="round" stroke-width="1" x1="700.0" x2="450.0" y1="250.0" y2="250.0" /><line clip-path="url(#border_clip)" stroke="#00ff00" stroke-linecap="round" stroke-width="1" x1="450.0" x2="450.0" y1="250.0" y2="400.0" /><polygon clip-path="url(#border_clip)" fill="#ffffff" fill-rule="evenodd" points="450.0,400.0 700.0,400.0 700.0,250.0 450.0,250.0 450.0,400.0" /><line clip-path="url(#border_clip)" stroke="#00ff00" stroke-linecap="round" stroke-width="1" x1="450.0" x2="700.0" y1="400.0" y2="400.0" /><line clip-path="url(#border_clip)" stroke="#00ff00" stroke-linecap="round" stroke-width="1" x1="700.0" x2="700.0" y1="400.0" y2="250.0" /><line clip-path="url(#border_clip)" stroke="#00ff00" stroke-linecap="round" stroke-width="1" x1="700.0" x2="450.0" y1="250.0" y2="250.0" /><line clip-path="url(#border_clip)" stroke="#00ff00" stroke-linecap="round" stroke-width="1" x1="450.0" x2="450.0" y1="250.0" y2="400.0" /><line clip-path="url(#border_clip)" stroke="#00ff00" stroke-linecap="round" stroke-width="1" x1="450.0" x2="450.0" y1="400.0" y2="400.0" /><line clip-path="url(#border_clip)" stroke="#0000ff" stroke-linecap="round" stroke-width="1" x1="450.0" x2="450.0" y1="355.0" y2="355.0" /><line clip-path="url(#border_clip)" stroke="#0000ff" stroke-linecap="round" stroke-width="1" x1="450.0" x2="459.567" y1="355.0" y2="353.097" /><line clip-path="url(#border_clip)" stroke="#0000ff" stroke-linecap="round" stroke-width="1" x1="459.567" x2="467.678" y1="353.097" y2="347.678" /><line clip-path="url(#border_clip)" stroke="#0000ff" stroke-linecap="round" stroke-width="1" x1="467.678" x2="473.097" y1="347.678" y2="339.567" /><line clip-path="url(#border_clip)" stroke="#0000ff" stroke-linecap="round" stroke-width="1" x1="473.097" x2="475.0" y1="339.567" y2="330.0" /><line clip-path="url(#border_clip)" stroke="#0000ff" stroke-linecap="round" stroke-width="1" x1="475.0" x2="473.097" y1="330.0" y2="320.433" /><line clip-path="url(#border_clip)" stroke="#0000ff" stroke-linecap="round" stroke-width="1" x1="473.097" x2="467.678" y1="320.433" y2="312.322" /><line clip-path="url(#border_clip)" stroke="#0000ff" stroke-linecap="round" stroke-width="1" x1="467.678" x2="459.567" y1="312.322" y2="306.903" /><line clip-path="url(#border_clip)" stroke="#0000ff" stroke-linecap="round" stroke-width="1" x1="459.567" x2="450.0" y1="306.903" y2="305.0" /><line clip-path="url(#border_clip)" stroke="#0000ff" stroke-linecap="round" stroke-width="1" x1="450.0" x2="440.433" y1="305.0" y2="306.903" /><line clip-path="url(#border_clip)" stroke="#0000ff" stroke-linecap="round" stroke-width="1" x1="440.433" x2="432.322" y1="306.903" y2="312.322" /><line clip-path="url(#border_clip)" stroke="#0000ff" stroke-linecap="round" stroke-width="1" x1="432.322" x2="426.903" y1="312.322" y2="320.433" /><line clip-path="url(#border_clip)" stroke="#0000ff" stroke-linecap="round" stroke-width="1" x1="426.903" x2="425.0" y1="320.433" y2="330.0" /><line clip-path="url(#border_clip)" stroke="#0000ff" stroke-linecap="round" stroke-width="1" x1="425.0" x2="426.903" y1="330.0" y2="339.567" /><line clip-path="url(#border_clip)" stroke="#0000ff" stroke-linecap="round" stroke-width="1" x1="426.903" x2="432.322" y1="339.567" y2="347.678" /><line clip-path="url(#border_clip)" stroke="#0000ff" stroke-linecap="round" stroke-width="1" x1="432.322" x2="440.433" y1="347.678" y2="353.097" /><line clip-path="url(#border_clip)" stroke="#0000ff" stroke-linecap="round" stroke-width="1" x1="440.433" x2="450.0" y1="353.097" y2="355.0" /><polygon clip-path="url(#border_clip)" fill="#0000ff" fill-rule="evenodd" points="450.0,355.0 459.567,353.097 467.678,347.678 473.097,339.567 475.0,330.0 473.097,320.433 467.678,312.322 459.567,306.903 450.0,305.0 440.433,306.903 432.322,312.322 426.903,320.433 425.0,330.0 426.903,339.567 432.322,347.678 440.433,353.097 450.0,355.0" /><line clip-path="url(#border_clip)" stroke="#0000ff" stroke-linecap="round" stroke-width="1" x1="450.0" x2="459.567" y1="355.0" y2="353.097" /><line clip-path="url(#border_clip)" stroke="#0000ff" stroke-linecap="round" stroke-width="1" x1="459.567" x2="467.678" y1="353.097" y2="347.678" /><line clip-path="url(#border_clip)" stroke="#0000ff" stroke-linecap="round" stroke-width="1" x1="467.678" x2="473.097" y1="347.678" y2="339.567" /><line clip-path="url(#border_clip)" stroke="#0000ff" stroke-linecap="round" stroke-width="1" x1="473.097" x2="475.0" y1="339.567" y2="330.0" /><line clip-path="url(#border_clip)" stroke="#0000ff" stroke-linecap="round" stroke-width="1" x1="475.0" x2="473.097" y1="330.0" y2="320.433" /><line clip-path="url(#border_clip)" stroke="#0000ff" stroke-linecap="round" stroke-width="1" x1="473.097" x2="467.678" y1="320.433" y2="312.322" /><line clip-path="url(#border_clip)" stroke="#0000ff" stroke-linecap="round" stroke-width="1" x1="467.678" x2="459.567" y1="312.322" y2="306.903" /><line clip-path="url(#border_clip)" stroke="#0000ff" stroke-linecap="round" stroke-width="1" x1="459.567" x2="450.0" y1="306.903" y2="305.0" /><line clip-path="url(#border_clip)" stroke="#0000ff" stroke-linecap="round" stroke-width="1" x1="450.0" x2="440.433" y1="305.0" y2="306.903" /><line clip-path="url(#border_clip)" stroke="#0000ff" stroke-linecap="round" stroke-width="1" x1="440.433" x2="432.322" y1="306.903" y2="312.322" /><line clip-path="url(#border_clip)" stroke="#0000ff" stroke-linecap="round" stroke-width="1" x1="432.322" x2="426.903" y1="312.322" y2="320.433" /><line clip-path="url(#border_clip)" stroke="#0000ff" stroke-linecap="round" stroke-width="1" x1="426.903" x2="425.0" y1="320.433" y2="330.0" /><line clip-path="url(#border_clip)" stroke="#0000ff" stroke-linecap="round" stroke-width="1" x1="425.0" x2="426.903" y1="330.0" y2="339.567" /><line clip-path="url(#border_clip)" stroke="#0000ff" stroke-linecap="round" stroke-width="1" x1="426.903" x2="432.322" y1="339.567" y2="347.678" /><line clip-path="url(#border_clip)" stroke="#0000ff" stroke-linecap="round" stroke-width="1" x1="432.322" x2="440.433" y1="347.678" y2="353.097" /><line clip-path="url(#border_clip)" stroke="#0000ff" stroke-linecap="round" stroke-width="1" x1="440.433" x2="450.0" y1="353.097" y2="355.0" /><line clip-path="url(#border_clip)" stroke="#0000ff" stroke-linecap="round" stroke-width="1" x1="450.0" x2="450.0" y1="355.0" y2="355.0" /><line clip-path="url(#border_clip)" stroke="#0000ff" stroke-linecap="round" stroke-width="1" x1="450.0" x2="435.0" y1="355.0" y2="338.0" /><text clip-path="url(#border_clip)" fill="#ffffff" style="font-family: Arial; font-size: 13.2; font-style: normal;" text-anchor="start" x="435.0" y="334.4">KJ65</text><line clip-path="url(#border_clip)" stroke="#0000ff" stroke-linecap="round" stroke-width="1" x1="700.0" x2="700.0" y1="355.0" y2="355.0" /><line clip-path="url(#border_clip)" stroke="#0000ff" stroke-linecap="round" stroke-width="1" x1="700.0" x2="709.567" y1="355.0" y2="353.097" /><line clip-path="url(#border_clip)" stroke="#0000ff" stroke-linecap="round" stroke-width="1" x1="709.567" x2="717.678" y1="353.097" y2="347.678" /><line clip-path="url(#border_clip)" stroke="#0000ff" stroke-linecap="round" stroke-width="1" x1="717.678" x2="723.097" y1="347.678" y2="339.567" /><line clip-path="url(#border_clip)" stroke="#0000ff" stroke-linecap="round" stroke-width="1" x1="723.097" x2="725.0" y1="339.567" y2="330.0" /><line clip-path="url(#border_clip)" stroke="#0000ff" stroke-linecap="round" stroke-width="1" x1="725.0" x2="723.097" y1="330.0" y2="320.433" /><line clip-path="url(#border_clip)" stroke="#0000ff" stroke-linecap="round" stroke-width="1" x1="723.097" x2="717.678" y1="320.433" y2="312.322" /><line clip-path="url(#border_clip)" stroke="#0000ff" stroke-linecap="round" stroke-width="1" x1="717.678" x2="709.567" y1="312.322" y2="306.903" /><line clip-path="url(#border_clip)" stroke="#0000ff" stroke-linecap="round" stroke-width="1" x1="709.567" x2="700.0" y1="306.903" y2="305.0" /><line clip-path="url(#border_clip)" stroke="#0000ff" stroke-linecap="round" stroke-width="1" x1="700.0" x2="690.433" y1="305.0" y2="306.903" /><line clip-path="url(#border_clip)" stroke="#0000ff" stroke-linecap="round" stroke-width="1" x1="690.433" x2="682.322" y1="306.903" y2="312.322" /><line clip-path="url(#border_clip)" stroke="#0000ff" stroke-linecap="round" stroke-width="1" x1="682.322" x2="676.903" y1="312.322" y2="320.433" /><line clip-path="url(#border_clip)" stroke="#0000ff" stroke-linecap="round" stroke-width="1" x1="676.903" x2="675.0" y1="320.433" y2="330.0" /><line clip-path="url(#border_clip)" stroke="#0000ff" stroke-linecap="round" stroke-width="1" x1="675.0" x2="676.903" y1="330.0" y2="339.567" /><line clip-path="url(#border_clip)" stroke="#0000ff" stroke-linecap="round" stroke-width="1" x1="676.903" x2="682.322" y1="339.567" y2="347.678" /><line clip-path="url(#border_clip)" stroke="#0000ff" stroke-linecap="round" stroke-width="1" x1="682.322" x2="690.433" y1="347.678" y2="353.097" /><line clip-path="url(#border_clip)" stroke="#0000ff" stroke-linecap="round" stroke-width="1" x1="690.433" x2="700.0" y1="353.097" y2="355.0" /><polygon clip-path="url(#border_clip)" fill="#0000ff" fill-rule="evenodd" points="700.0,355.0 709.567,353.097 717.678,347.678 723.097,339.567 725.0,330.0 723.097,320.433 717.678,312.322 709.567,306.903 700.0,305.0 690.433,306.903 682.322,312.322 676.903,320.433 675.0,330.0 676.903,339.567 682.322,347.678 690.433,353.097 700.0,355.0" /><line clip-path="url(#border_clip)" stroke="#0000ff" stroke-linecap="round" stroke-width="1" x1="700.0" x2="709.567" y1="355.0" y2="353.097" /><line clip-path="url(#border_clip)" stroke="#0000ff" stroke-linecap="round" stroke-width="1" x1="709.567" x2="717.678" y1="353.097" y2="347.678" /><line clip-path="url(#border_clip)" stroke="#0000ff" stroke-linecap="round" stroke-width="1" x1="717.678" x2="723.097" y1="347.678" y2="339.567" /><line clip-path="url(#border_clip)" stroke="#0000ff" stroke-linecap="round" stroke-width="1" x1="723.097" x2="725.0" y1="339.567" y2="330.0" /><line clip-path="url(#border_clip)" stroke="#0000ff" stroke-linecap="round" stroke-width="1" x1="725.0" x2="723.097" y1="330.0" y2="320.433" /><line clip-path="url(#border_clip)" stroke="#0000ff" stroke-linecap="round" stroke-width="1" x1="723.097" x2="717.678" y1="320.433" y2="312.322" /><line clip-path="url(#border_clip)" stroke="#0000ff" stroke-linecap="round" stroke-width="1" x1="717.678" x2="709.567" y1="312.322" y2="306.903" /><line clip-path="url(#border_clip)" stroke="#0000ff" stroke-linecap="round" stroke-width="1" x1="709.567" x2="700.0" y1="306.903" y2="305.0" /><line clip-path="url(#border_clip)" stroke="#0000ff" stroke-linecap="round" stroke-width="1" x1="700.0" x2="690.433" y1="305.0" y2="306.903" /><line clip-path="url(#border_clip)" stroke="#0000ff" stroke-linecap="round" stroke-width="1" x1="690.433" x2="682.322" y1="306.903" y2="312.322" /><line clip-path="url(#border_clip)" stroke="#0000ff" stroke-linecap="round" stroke-width="1" x1="682.322" x2="676.903" y1="312.322" y2="320.433" /><line clip-path="url(#border_clip)" stroke="#0000ff" stroke-linecap="round" stroke-width="1" x1="676.903" x2="675.0" y1="320.433" y2="330.0" /><line clip-path="url(#border_clip)" stroke="#0000ff" stroke-linecap="round" stroke-width="1" x1="675.0" x2="676.903" y1="330.0" y2="339.567" /><line clip-path="url(#border_clip)" stroke="#0000ff" stroke-linecap="round" stroke-width="1" x1="676.903" x2="682.322" y1="339.567" y2="347.678" /><line clip-path="url(#border_clip)" stroke="#0000ff" stroke-linecap="round" stroke-width="1" x1="682.322" x2="690.433" y1="347.678" y2="353.097" /><line clip-path="url(#border_clip)" stroke="#0000ff" stroke-linecap="round" stroke-width="1" x1="690.433" x2="700.0" y1="353.097" y2="355.0" /><line clip-path="url(#border_clip)" stroke="#0000ff" stroke-linecap="round" stroke-width="1" x1="700.0" x2="700.0" y1="355.0" y2="355.0" /><text clip-path="url(#border_clip)" fill="#ffffff" style="font-family: Arial; font-size: 13.2; font-style: normal;" text-anchor="start" x="685.0" y="338.4">HF32</text><text clip-path="url(#border_clip)" fill="#000000" style="font-family: Arial; font-size: 13.2; font-style: normal;" text-anchor="start" x="490.0" y="351.4">Ipsum proin quis tortora ma</text><line clip-path="url(#border_clip)" stroke="#000000" stroke-linecap="round" stroke-width="1" x1="480.0" x2="480.0" y1="310.0" y2="310.0" /><line clip-path="url(#border_clip)" stroke="#000000" stroke-linecap="round" stroke-width="1" x1="480.0" x2="660.0" y1="310.0" y2="310.0" /><line clip-path="url(#border_clip)" stroke="#000000" stroke-linecap="round" stroke-width="1" x1="660.0" x2="660.0" y1="310.0" y2="300.0" /><line clip-path="url(#border_clip)" stroke="#000000" stroke-linecap="round" stroke-width="1" x1="660.0" x2="480.0" y1="300.0" y2="300.0" /><line clip-path="url(#border_clip)" stroke="#000000" stroke-linecap="round" stroke-width="1" x1="480.0" x2="480.0" y1="300.0" y2="310.0" /><polygon clip-path="url(#border_clip)" fill="#ffff00" fill-rule="evenodd" points="480.0,310.0 660.0,310.0 660.0,300.0 480.0,300.0 480.0,310.0" /><line clip-path="url(#border_clip)" stroke="#000000" stroke-linecap="round" stroke-width="1" x1="480.0" x2="660.0" y1="310.0" y2="310.0" /><line clip-path="url(#border_clip)" stroke="#000000" stroke-linecap="round" stroke-width="1" x1="660.0" x2="660.0" y1="310.0" y2="300.0" /><line clip-path="url(#border_clip)" stroke="#000000" stroke-linecap="round" stroke-width="1" x1="660.0" x2="480.0" y1="300.0" y2="300.0" /><line clip-path="url(#border_clip)" stroke="#000000" stroke-linecap="round" stroke-width="1" x1="480.0" x2="480.0" y1="300.0" y2="310.0" /><line clip-path="url(#border_clip)" stroke="#000000" stroke-linecap="round" stroke-width="1" x1="480.0" x2="480.0" y1="310.0" y2="310.0" /><line clip-path="url(#border_clip)" stroke="#000000" stroke-linecap="round" stroke-width="1" x1="480.0" x2="660.0" y1="370.0" y2="370.0" /><line clip-path="url(#border_clip)" stroke="#000000" stroke-linecap="round" stroke-width="1" x1="660.0" x2="660.0" y1="370.0" y2="320.0" /><line clip-path="url(#border_clip)" stroke="#000000" stroke-linecap="round" stroke-width="1" x1="660.0" x2="480.0" y1="320.0" y2="320.0" /><line clip-path="url(#border_clip)" stroke="#000000" stroke-linecap="round" stroke-width="1" x1="480.0" x2="480.0" y1="320.0" y2="370.0" /><line clip-path="url(#border_clip)" stroke="#00ff00" stroke-linecap="round" stroke-width="1" x1="0.0" x2="350.0" y1="600.0" y2="600.0" /><line clip-path="url(#border_clip)" stroke="#00ff00" stroke-linecap="round" stroke-width="1" x1="350.0" x2="350.0" y1="600.0" y2="0.0" /><line clip-path="url(#border_clip)" stroke="#00ff00" stroke-linecap="round" stroke-width="1" x1="350.0" x2="0.0" y1="0.0" y2="0.0" /><line clip-path="url(#border_clip)" stroke="#00ff00" stroke-linecap="round" stroke-width="1" x1="0.0" x2="0.0" y1="0.0" y2="600.0" /><line clip-path="url(#border_clip)" stroke="#00ff00" stroke-linecap="round" stroke-width="1" x1="400.0" x2="750.0" y1="600.0" y2="600.0" /><line clip-path="url(#border_clip)" stroke="#00ff00" stroke-linecap="round" stroke-width="1" x1="750.0" x2="750.0" y1="600.0" y2="0.0" /><line clip-path="url(#border_clip)" stroke="#00ff00" stroke-linecap="round" stroke-width="1" x1="750.0" x2="400.0" y1="0.0" y2="0.0" /><line clip-path="url(#border_clip)" stroke="#00ff00" stroke-linecap="round" stroke-width="1" x1="400.0" x2="400.0" y1="0.0" y2="600.0" /><line clip-path="url(#border_clip)" stroke="#00ff00" stroke-linecap="round" stroke-width="1" x1="800.0" x2="1150.0" y1="600.0" y2="600.0" /><line clip-path="url(#border_clip)" stroke="#00ff00" stroke-linecap="round" stroke-width="1" x1="1150.0" x2="1150.0" y1="600.0" y2="0.0" /><line clip-path="url(#border_clip)" stroke="#00ff00" stroke-linecap="round" stroke-width="1" x1="1150.0" x2="800.0" y1="0.0" y2="0.0" /><line clip-path="url(#border_clip)" stroke="#00ff00" stroke-linecap="round" stroke-width="1" x1="800.0" x2="800.0" y1="0.0" y2="600.0" /><line clip-path="url(#border_clip)" stroke="#00ff00" stroke-linecap="round" stroke-width="1" x1="850.0" x2="850.0" y1="400.0" y2="400.0" /><line clip-path="url(#border_clip)" stroke="#00ff00" stroke-linecap="round" stroke-width="1" x1="850.0" x2="1100.0" y1="400.0" y2="400.0" /><line clip-path="url(#border_clip)" stroke="#00ff00" stroke-linecap="round" stroke-width="1" x1="1100.0" x2="1100.0" y1="400.0" y2="250.0" /><line clip-path="url(#border_clip)" stroke="#00ff00" stroke-linecap="round" stroke-width="1" x1="1100.0" x2="850.0" y1="250.0" y2="250.0" /><line clip-path="url(#border_clip)" stroke="#00ff00" stroke-linecap="round" stroke-width="1" x1="850.0" x2="850.0" y1="250.0" y2="400.0" /><polygon clip-path="url(#border_clip)" fill="#ffffff" fill-rule="evenodd" points="850.0,400.0 1100.0,400.0 1100.0,250.0 850.0,250.0 850.0,400.0" /><line clip-path="url(#border_clip)" stroke="#00ff00" stroke-linecap="round" stroke-width="1" x1="850.0" x2="1100.0" y1="400.0" y2="400.0" /><line clip-path="url(#border_clip)" stroke="#00ff00" stroke-linecap="round" stroke-width="1" x1="1100.0" x2="1100.0" y1="400.0" y2="250.0" /><line clip-path="url(#border_clip)" stroke="#00ff00" stroke-linecap="round" stroke-width="1" x1="1100.0" x2="850.0" y1="250.0" y2="250.0" /><line clip-path="url(#border_clip)" stroke="#00ff00" stroke-linecap="round" stroke-width="1" x1="850.0" x2="850.0" y1="250.0" y2="400.0" /><line clip-path="url(#border_clip)" stroke="#00ff00" stroke-linecap="round" stroke-width="1" x1="850.0" x2="850.0" y1="400.0" y2="400.0" /><line clip-path="url(#border_clip)" stroke="#0000ff" stroke-linecap="round" stroke-width="1" x1="850.0" x2="850.0" y1="355.0" y2="355.0" /><line clip-path="url(#border_clip)" stroke="#0000ff" stroke-linecap="round" stroke-width="1" x1="850.0" x2="859.567" y1="355.0" y2="353.097" /><line clip-path="url(#border_clip)" stroke="#0000ff" stroke-linecap="round" stroke-width="1" x1="859.567" x2="867.678" y1="353.097" y2="347.678" /><line clip-path="url(#border_clip)" stroke="#0000ff" stroke-linecap="round" stroke-width="1" x1="867.678" x2="873.097" y1="347.678" y2="339.567" /><line clip-path="url(#border_clip)" stroke="#0000ff" stroke-linecap="round" stroke-width="1" x1="873.097" x2="875.0" y1="339.567" y2="330.0" /><line clip-path="url(#border_clip)" stroke="#0000ff" stroke-linecap="round" stroke-width="1" x1="875.0" x2="873.097" y1="330.0" y2="320.433" /><line clip-path="url(#border_clip)" stroke="#0000ff" stroke-linecap="round" stroke-width="1" x1="873.097" x2="867.678" y1="320.433" y2="312.322" /><line clip-path="url(#border_clip)" stroke="#0000ff" stroke-linecap="round" stroke-width="1" x1="867.678" x2="859.567" y1="312.322" y2="306.903" /><line clip-path="url(#border_clip)" stroke="#0000ff" stroke-linecap="round" stroke-width="1" x1="859.567" x2="850.0" y1="306.903" y2="305.0" /><line clip-path="url(#border_clip)" stroke="#0000ff" stroke-linecap="round" stroke-width="1" x1="850.0" x2="840.433" y1="305.0" y2="306.903" /><line clip-path="url(#border_clip)" stroke="#0000ff" stroke-linecap="round" stroke-width="1" x1="840.433" x2="832.322" y1="306.903" y2="312.322" /><line clip-path="url(#border_clip)" stroke="#0000ff" stroke-linecap="round" stroke-width="1" x1="832.322" x2="826.903" y1="312.322" y2="320.433" /><line clip-path="url(#border_clip)" stroke="#0000ff" stroke-linecap="round" stroke-width="1" x1="826.903" x2="825.0" y1="320.433" y2="330.0" /><line clip-path="url(#border_clip)" stroke="#0000ff" stroke-linecap="round" stroke-width="1" x1="825.0" x2="826.903" y1="330.0" y2="339.567" /><line clip-path="url(#border_clip)" stroke="#0000ff" stroke-linecap="round" stroke-width="1" x1="826.903" x2="832.322" y1="339.567" y2="347.678" /><line clip-path="url(#border_clip)" stroke="#0000ff" stroke-linecap="round" stroke-width="1" x1="832.322" x2="840.433" y1="347.678" y2="353.097" /><line clip-path="url(#border_clip)" stroke="#0000ff" stroke-linecap="round" stroke-width="1" x1="840.433" x2="850.0" y1="353.097" y2="355.0" /><polygon clip-path="url(#border_clip)" fill="#0000ff" fill-rule="evenodd" points="850.0,355.0 859.567,353.097 867.678,347.678 873.097,339.567 875.0,330.0 873.097,320.433 867.678,312.322 859.567,306.903 850.0,305.0 840.433,306.903 832.322,312.322 826.903,320.433 825.0,330.0 826.903,339.567 832.322,347.678 840.433,353.097 850.0,355.0" /><line clip-path="url(#border_clip)" stroke="#0000ff" stroke-linecap="round" stroke-width="1" x1="850.0" x2="859.567" y1="355.0" y2="353.097" /><line clip-path="url(#border_clip)" stroke="#0000ff" stroke-linecap="round" stroke-width="1" x1="859.567" x2="867.678" y1="353.097" y2="347.678" /><line clip-path="url(#border_clip)" stroke="#0000ff" stroke-linecap="round" stroke-width="1" x1="867.678" x2="873.097" y1="347.678" y2="339.567" /><line clip-path="url(#border_clip)" stroke="#0000ff" stroke-linecap="round" stroke-width="1" x1="873.097" x2="875.0" y1="339.567" y2="330.0" /><line clip-path="url(#border_clip)" stroke="#0000ff" stroke-linecap="round" stroke-width="1" x1="875.0" x2="873.097" y1="330.0" y2="320.433" /><line clip-path="url(#border_clip)" stroke="#0000ff" stroke-linecap="round" stroke-width="1" x1="873.097" x2="867.678" y1="320.433" y2="312.322" /><line clip-path="url(#border_clip)" stroke="#0000ff" stroke-linecap="round" stroke-width="1" x1="867.678" x2="859.567" y1="312.322" y2="306.903" /><line clip-path="url(#border_clip)" stroke="#0000ff" stroke-linecap="round" stroke-width="1" x1="859.567" x2="850.0" y1="306.903" y2="305.0" /><line clip-path="url(#border_clip)" stroke="#0000ff" stroke-linecap="round" stroke-width="1" x1="850.0" x2="840.433" y1="305.0" y2="306.903" /><line clip-path="url(#border_clip)" stroke="#0000ff" stroke-linecap="round" stroke-width="1" x1="840.433" x2="832.322" y1="306.903" y2="312.322" /><line clip-path="url(#border_clip)" stroke="#0000ff" stroke-linecap="round" stroke-width="1" x1="832.322" x2="826.903" y1="312.322" y2="320.433" /><line clip-path="url(#border_clip)" stroke="#0000ff" stroke-linecap="round" stroke-width="1" x1="826.903" x2="825.0" y1="320.433" y2="330.0" /><line clip-path="url(#border_clip)" stroke="#0000ff" stroke-linecap="round" stroke-width="1" x1="825.0" x2="826.903" y1="330.0" y2="339.567" /><line clip-path="url(#border_clip)" stroke="#0000ff" stroke-linecap="round" stroke-width="1" x1="826.903" x2="832.322" y1="339.567" y2="347.678" /><line clip-path="url(#border_clip)" stroke="#0000ff" stroke-linecap="round" stroke-width="1" x1="832.322" x2="840.433" y1="347.678" y2="353.097" /><line clip-path="url(#border_clip)" stroke="#0000ff" stroke-linecap="round" stroke-width="1" x1="840.433" x2="850.0" y1="353.097" y2="355.0" /><line clip-path="url(#border_clip)" stroke="#0000ff" stroke-linecap="round" stroke-width="1" x1="850.0" x2="850.0" y1="355.0" y2="355.0" /><line clip-path="url(#border_clip)" stroke="#0000ff" stroke-linecap="round" stroke-width="1" x1="850.0" x2="835.0" y1="355.0" y2="338.0" /><text clip-path="url(#border_clip)" fill="#ffffff" style="font-family: Arial; font-size: 13.2; font-style: normal;" text-anchor="start" x="835.0" y="334.4">HF32</text><line clip-path="url(#border_clip)" stroke="#0000ff" stroke-linecap="round" stroke-width="1" x1="1100.0" x2="1100.0" y1="355.0" y2="355.0" /><line clip-path="url(#border_clip)" stroke="#0000ff" stroke-linecap="round" stroke-width="1" x1="1100.0" x2="1109.567" y1="355.0" y2="353.097" /><line clip-path="url(#border_clip)" stroke="#0000ff" stroke-linecap="round" stroke-width="1" x1="1109.567" x2="1117.678" y1="353.097" y2="347.678" /><line clip-path="url(#border_clip)" stroke="#0000ff" stroke-linecap="round" stroke-width="1" x1="1117.678" x2="1123.097" y1="347.678" y2="339.567" /><line clip-path="url(#border_clip)" stroke="#0000ff" stroke-linecap="round" stroke-width="1" x1="1123.097" x2="1125.0" y1="339.567" y2="330.0" /><line clip-path="url(#border_clip)" stroke="#0000ff" stroke-linecap="round" stroke-width="1" x1="1125.0" x2="1123.097" y1="330.0" y2="320.433" /><line clip-path="url(#border_clip)" stroke="#0000ff" stroke-linecap="round" stroke-width="1" x1="1123.097" x2="1117.678" y1="320.433" y2="312.322" /><line clip-path="url(#border_clip)" stroke="#0000ff" stroke-linecap="round" stroke-width="1" x1="1117.678" x2="1109.567" y1="312.322" y2="306.903" /><line clip-path="url(#border_clip)" stroke="#0000ff" stroke-linecap="round" stroke-width="1" x1="1109.567" x2="1100.0" y1="306.903" y2="305.0" /><line clip-path="url(#border_clip)" stroke="#0000ff" stroke-linecap="round" stroke-width="1" x1="1100.0" x2="1090.433" y1="305.0" y2="306.903" /><line clip-path="url(#border_clip)" stroke="#0000ff" stroke-linecap="round" stroke-width="1" x1="1090.433" x2="1082.322" y1="306.903" y2="312.322" /><line clip-path="url(#border_clip)" stroke="#0000ff" stroke-linecap="round" stroke-width="1" x1="1082.322" x2="1076.903" y1="312.322" y2="320.433" /><line clip-path="url(#border_clip)" stroke="#0000ff" stroke-linecap="round" stroke-width="1" x1="1076.903" x2="1075.0" y1="320.433" y2="330.0" /><line clip-path="url(#border_clip)" stroke="#0000ff" stroke-linecap="round" stroke-width="1" x1="1075.0" x2="1076.903" y1="330.0" y2="339.567" /><line clip-path="url(#border_clip)" stroke="#0000ff" stroke-linecap="round" stroke-width="1" x1="1076.903" x2="1082.322" y1="339.567" y2="347.678" /><line clip-path="url(#border_clip)" stroke="#0000ff" stroke-linecap="round" stroke-width="1" x1="1082.322" x2="1090.433" y1="347.678" y2="353.097" /><line clip-path="url(#border_clip)" stroke="#0000ff" stroke-linecap="round" stroke-width="1" x1="1090.433" x2="1100.0" y1="353.097" y2="355.0" /><polygon clip-path="url(#border_clip)" fill="#0000ff" fill-rule="evenodd" points="1100.0,355.0 1109.567,353.097 1117.678,347.678 1123.097,339.567 1125.0,330.0 1123.097,320.433 1117.678,312.322 1109.567,306.903 1100.0,305.0 1090.433,306.903 1082.322,312.322 1076.903,320.433 1075.0,330.0 1076.903,339.567 1082.322,347.678 1090.433,353.097 1100.0,355.0" /><line clip-path="url(#border_clip)" stroke="#0000ff" stroke-linecap="round" stroke-width="1" x1="1100.0" x2="1109.567" y1="355.0" y2="353.097" /><line clip-path="url(#border_clip)" stroke="#0000ff" stroke-linecap="round" stroke-width="1" x1="1109.567" x2="1117.678" y1="353.097" y2="347.678" /><line clip-path="url(#border_clip)" stroke="#0000ff" stroke-linecap="round" stroke-width="1" x1="1117.678" x2="1123.097" y1="347.678" y2="339.567" /><line clip-path="url(#border_clip)" stroke="#0000ff" stroke-linecap="round" stroke-width="1" x1="1123.097" x2="1125.0" y1="339.567" y2="330.0" /><line clip-path="url(#border_clip)" stroke="#0000ff" stroke-linecap="round" stroke-width="1" x1="1125.0" x2="1123.097" y1="330.0" y2="320.433" /><line clip-path="url(#border_clip)" stroke="#0000ff" stroke-linecap="round" stroke-width="1" x1="1123.097" x2="1117.678" y1="320.433" y2="312.322" /><line clip-path="url(#border_clip)" stroke="#0000ff" stroke-linecap="round" stroke-width="1" x1="1117.678" x2="1109.567" y1="312.322" y2="306.903" /><line clip-path="url(#border_clip)" stroke="#0000ff" stroke-linecap="round" stroke-width="1" x1="1109.567" x2="1100.0" y1="306.903" y2="305.0" /><line clip-path="url(#border_clip)" stroke="#0000ff" stroke-linecap="round" stroke-width="1" x1="1100.0" x2="1090.433" y1="305.0" y2="306.903" /><line clip-path="url(#border_clip)" stroke="#0000ff" stroke-linecap="round" stroke-width="1" x1="1090.433" x2="1082.322" y1="306.903" y2="312.322" /><line clip-path="url(#border_clip)" stroke="#0000ff" stroke-linecap="round" stroke-width="1" x1="1082.322" x2="1076.903" y1="312.322" y2="320.433" /><line clip-path="url(#border_clip)" stroke="#0000ff" stroke-linecap="round" stroke-width="1" x1="1076.903" x2="1075.0" y1="320.433" y2="330.0" /><line clip-path="url(#border_clip)" stroke="#0000ff" stroke-linecap="round" stroke-width="1" x1="1075.0" x2="1076.903" y1="330.0" y2="339.567" /><line clip-path="url(#border_clip)" stroke="#0000ff" stroke-linecap="round" stroke-width="1" x1="1076.903" x2="1082.322" y1="339.567" y2="347.678" /><line clip-path="url(#border_clip)" stroke="#0000ff" stroke-linecap="round" stroke-width="1" x1="1082.322" x2="1090.433" y1="347.678" y2="353.097" /><line clip-path="url(#border_clip)" stroke="#0000ff" stroke-linecap="round" stroke-width="1" x1="1090.433" x2="1100.0" y1="353.097" y2="355.0" /><line clip-path="url(#border_clip)" stroke="#0000ff" stroke-linecap="round" stroke-width="1" x1="1100.0" x2="1100.0" y1="355.0" y2="355.0" /><text clip-path="url(#border_clip)" fill="#ffffff" style="font-family: Arial; font-size: 13.2; font-style: normal;" text-anchor="start" x="1085.0" y="338.4">ZX12</text><text clip-path="url(#border_clip)" fill="#000000" style="font-family: Arial; font-size: 13.2; font-style: normal;" text-anchor="start" x="890.0" y="351.4">Laculis euis mod In hac hab</text><line clip-path="url(#border_clip)" stroke="#000000" stroke-linecap="round" stroke-width="1" x1="880.0" x2="880.0" y1="310.0" y2="310.0" /><line clip-path="url(#border_clip)" stroke="#000000" stroke-linecap="round" stroke-width="1" x1="880.0" x2="1060.0" y1="310.0" y2="310.0" /><line clip-path="url(#border_clip)" stroke="#000000" stroke-linecap="round" stroke-width="1" x1="1060.0" x2="1060.0" y1="310.0" y2="300.0" /><line clip-path="url(#border_clip)" stroke="#000000" stroke-linecap="round" stroke-width="1" x1="1060.0" x2="880.0" y1="300.0" y2="300.0" /><line clip-path="url(#border_clip)" stroke="#000000" stroke-linecap="round" stroke-width="1" x1="880.0" x2="880.0" y1="300.0" y2="310.0" /><polygon clip-path="url(#border_clip)" fill="#ffa500" fill-rule="evenodd" points="880.0,310.0 1060.0,310.0 1060.0,300.0 880.0,300.0 880.0,310.0" /><line clip-path="url(#border_clip)" stroke="#000000" stroke-linecap="round" stroke-width="1" x1="880.0" x2="1060.0" y1="310.0" y2="310.0" /><line clip-path="url(#border_clip)" stroke="#000000" stroke-linecap="round" stroke-width="1" x1="1060.0" x2="1060.0" y1="310.0" y2="300.0" /><line clip-path="url(#border_clip)" stroke="#000000" stroke-linecap="round" stroke-width="1" x1="1060.0" x2="880.0" y1="300.0" y2="300.0" /><line clip-path="url(#border_clip)" stroke="#000000" stroke-linecap="round" stroke-width="1" x1="880.0" x2="880.0" y1="300.0" y2="310.0" /><line clip-path="url(#border_clip)" stroke="#000000" stroke-linecap="round" stroke-width="1" x1="880.0" x2="880.0" y1="310.0" y2="310.0" /><line clip-path="url(#border_clip)" stroke="#000000" stroke-linecap="round" stroke-width="1" x1="880.0" x2="1060.0" y1="370.0" y2="370.0" /><line clip-path="url(#border_clip)" stroke="#000000" stroke-linecap="round" stroke-width="1" x1="1060.0" x2="1060.0" y1="370.0" y2="320.0" /><line clip-path="url(#border_clip)" stroke="#000000" stroke-linecap="round" stroke-width="1" x1="1060.0" x2="880.0" y1="320.0" y2="320.0" /><line clip-path="url(#border_clip)" stroke="#000000" stroke-linecap="round" stroke-width="1" x1="880.0" x2="880.0" y1="320.0" y2="370.0" /></svg>