<?xml version="1.0" encoding="utf-8" ?>
<svg baseProfile="full" height="2000px" version="1.1" width="2000px" xmlns="http://www.w3.org/2000/svg" xmlns:ev="http://www.w3.org/2001/xml-events" xmlns:xlink="http://www.w3.org/1999/xlink"><defs><clipPath id="border_clip"><rect height="2000" width="2000" x="0" y="0" /></clipPath></defs><line clip-path="url(#border_clip)" stroke="#00ff00" stroke-linecap="round" stroke-width="1" x1="0.0" x2="350.0" y1="600.0" y2="600.0" /><line clip-path="url(#border_clip)" stroke="#00ff00" stroke-linecap="round" stroke-width="1" x1="350.0" x2="350.0" y1="600.0" y2="0.0" /><line clip-path="url(#border_clip)" stroke="#00ff00" stroke-linecap="round" stroke-width="1" x1="350.0" x2="0.0" y1="0.0" y2="0.0" /><line clip-path="url(#border_clip)" stroke="#00ff00" stroke-linecap="round" stroke-width="1" x1="0.0" x2="-0.0" y1="0.0" y2="600.0" /><line clip-path="url(#border_clip)" stroke="#00ff00" stroke-linecap="round" stroke-width="1" x1="400.0" x2="750.0" y1="600.0" y2="600.0" /><line clip-path="url(#border_clip)" stroke="#00ff00" stroke-linecap="round" stroke-width="1" x1="750.0" x2="750.0" y1="600.0" y2="0.0" /><line clip-path="url(#border_clip)" stroke="#00ff00" stroke-linecap="round" stroke-width="1" x1="750.0" x2="400.0" y1="0.0" y2="0.0" /><line clip-path="url(#border_clip)" stroke="#00ff00" stroke-linecap="round" stroke-width="1" x1="400.0" x2="400.0" y1="0.0" y2="600.0" /><line clip-path="url(#border_clip)" stroke="#00ff00" stroke-linecap="round" stroke-width="1" x1="50.0" x2="50.0" y1="200.0" y2="200.0" /><line clip-path="url(#border_clip)" stroke="#00ff00" stroke-linecap="round" stroke-width="1" x1="50.0" x2="300.0" y1="200.0" y2="200.0" /><line clip-path="url(#border_clip)" stroke="#00ff00" stroke-linecap="round" stroke-width="1" x1="300.0" x2="300.0" y1="200.0" y2="50.0" /><line clip-path="url(#border_clip)" stroke="#00ff00" stroke-linecap="round" stroke-width="1" x1="300.0" x2="50.0" y1="50.0" y2="50.0" /><line clip-path="url(#border_clip)" stroke="#00ff00" stroke-linecap="round" stroke-width="1" x1="50.0" x2="50.0" y1="50.0" y2="200.0" /><polygon clip-path="url(#border_clip)" fill="#ffffff" fill-rule="evenodd" points="50.0,200.0 300.0,200.0 300.0,50.0 50.0,50.0 50.0,200.0" /><line clip-path="url(#border_clip)" stroke="#00ff00" stroke-linecap="round" stroke-width="1" x1="50.0" x2="300.0" y1="200.0" y2="200.0" /><line clip-path="url(#border_clip)" stroke="#00ff00" stroke-linecap="round" stroke-width="1" x1="300.0" x2="300.0" y1="200.0" y2="50.0" /><line clip-path="url(#border_clip)" stroke="#00ff00" stroke-linecap="round" stroke-width="1" x1="300.0" x2="50.0" y1="50.0" y2="50.0" /><line clip-path="url(#border_clip)" stroke="#00ff00" stroke-linecap="round" stroke-width="1" x1="50.0" x2="50.0" y1="50.0" y2="200.0" /><line clip-path="url(#border_clip)" stroke="#00ff00" stroke-linecap="round" stroke-width="1" x1="50.0" x2="50.0" y1="200.0" y2="200.0" /><line clip-path="url(#border_clip)" stroke="#0000ff" stroke-linecap="round" stroke-width="1" x1="50.0" x2="50.0" y1="155.0" y2="155.0" /><line clip-path="url(#border_clip)" stroke="#0000ff" stroke-linecap="round" stroke-width="1" x1="50.0" x2="59.567" y1="155.0" y2="153.097" /><line clip-path="url(#border_clip)" stroke="#0000ff" stroke-linecap="round" stroke-width="1" x1="59.567" x2="67.678" y1="153.097" y2="147.678" /><line clip-path="url(#border_clip)" stroke="#0000ff" stroke-linecap="round" stroke-width="1" x1="67.678" x2="73.097" y1="147.678" y2="139.567" /><line clip-path="url(#border_clip)" stroke="#0000ff" stroke-linecap="round" stroke-width="1" x1="73.097" x2="75.0" y1="139.567" y2="130.0" /><line clip-path="url(#border_clip)" stroke="#0000ff" stroke-linecap="round" stroke-width="1" x1="75.0" x2="73.097" y1="130.0" y2="120.433" /><line clip-path="url(#border_clip)" stroke="#0000ff" stroke-linecap="round" stroke-width="1" x1="73.097" x2="67.678" y1="120.433" y2="112.322" /><line clip-path="url(#border_clip)" stroke="#0000ff" stroke-linecap="round" stroke-width="1" x1="67.678" x2="59.567" y1="112.322" y2="106.903" /><line clip-path="url(#border_clip)" stroke="#0000ff" stroke-linecap="round" stroke-width="1" x1="59.567" x2="50.0" y1="106.903" y2="105.0" /><line clip-path="url(#border_clip)" stroke="#0000ff" stroke-linecap="round" stroke-width="1" x1="50.0" x2="40.433" y1="105.0" y2="106.903" /><line clip-path="url(#border_clip)" stroke="#0000ff" stroke-linecap="round" stroke-width="1" x1="40.433" x2="32.322" y1="106.903" y2="112.322" /><line clip-path="url(#border_clip)" stroke="#0000ff" stroke-linecap="round" stroke-width="1" x1="32.322" x2="26.903" y1="112.322" y2="120.433" /><line clip-path="url(#border_clip)" stroke="#0000ff" stroke-linecap="round" stroke-width="1" x1="26.903" x2="25.0" y1="120.433" y2="130.0" /><line clip-path="url(#border_clip)" stroke="#0000ff" stroke-linecap="round" stroke-width="1" x1="25.0" x2="26.903" y1="130.0" y2="139.567" /><line clip-path="url(#border_clip)" stroke="#0000ff" stroke-linecap="round" stroke-width="1" x1="26.903" x2="32.322" y1="139.567" y2="147.678" /><line clip-path="url(#border_clip)" stroke="#0000ff" stroke-linecap="round" stroke-width="1" x1="32.322" x2="40.433" y1="147.678" y2="153.097" /><line clip-path="url(#border_clip)" stroke="#0000ff" stroke-linecap="round" stroke-width="1" x1="40.433" x2="50.0" y1="153.097" y2="155.0" /><polygon clip-path="url(#border_clip)" fill="#0000ff" fill-rule="evenodd" points="50.0,155.0 59.567,153.097 67.678,147.678 73.097,139.567 75.0,130.0 73.097,120.433 67.678,112.322 59.567,106.903 50.0,105.0 40.433,106.903 32.322,112.322 26.903,120.433 25.0,130.0 26.903,139.567 32.322,147.678 40.433,153.097 50.0,155.0" /><line clip-path="url(#border_clip)" stroke="#0000ff" stroke-linecap="round" stroke-width="1" x1="50.0" x2="59.567" y1="155.0" y2="153.097" /><line clip-path="url(#border_clip)" stroke="#0000ff" stroke-linecap="round" stroke-width="1" x1="59.567" x2="67.678" y1="153.097" y2="147.678" /><line clip-path="url(#border_clip)" stroke="#0000ff" stroke-linecap="round" stroke-width="1" x1="67.678" x2="73.097" y1="147.678" y2="139.567" /><line clip-path="url(#border_clip)" stroke="#0000ff" stroke-linecap="round" stroke-width="1" x1="73.097" x2="75.0" y1="139.567" y2="130.0" /><line clip-path="url(#border_clip)" stroke="#0000ff" stroke-linecap="round" stroke-width="1" x1="75.0" x2="73.097" y1="130.0" y2="120.433" /><line clip-path="url(#border_clip)" stroke="#0000ff" stroke-linecap="round" stroke-width="1" x1="73.097" x2="67.678" y1="120.433" y2="112.322" /><line clip-path="url(#border_clip)" stroke="#0000ff" stroke-linecap="round" stroke-width="1" x1="67.678" x2="59.567" y1="112.322" y2="106.903" /><line clip-path="url(#border_clip)" stroke="#0000ff" stroke-linecap="round" stroke-width="1" x1="59.567" x2="50.0" y1="106.903" y2="105.0" /><line clip-path="url(#border_clip)" stroke="#0000ff" stroke-linecap="round" stroke-width="1" x1="50.0" x2="40.433" y1="105.0" y2="106.903" /><line clip-path="url(#border_clip)" stroke="#0000ff" stroke-linecap="round" stroke-width="1" x1="40.433" x2="32.322" y1="106.903" y2="112.322" /><line clip-path="url(#border_clip)" stroke="#0000ff" stroke-linecap="round" stroke-width="1" x1="32.322" x2="26.903" y1="112.322" y2="120.433" /><line clip-path="url(#border_clip)" stroke="#0000ff" stroke-linecap="round" stroke-width="1" x1="26.903" x2="25.0" y1="120.433" y2="130.0" /><line clip-path="url(#border_clip)" stroke="#0000ff" stroke-linecap="round" stroke-width="1" x1="25.0" x2="26.903" y1="130.0" y2="139.567" /><line clip-path="url(#border_clip)" stroke="#0000ff" stroke-linecap="round" stroke-width="1" x1="26.903" x2="32.322" y1="139.567" y2="147.678" /><line clip-path="url(#border_clip)" stroke="#0000ff" stroke-linecap="round" stroke-width="1" x1="32.322" x2="40.433" y1="147.678" y2="153.097" /><line clip-path="url(#border_clip)" stroke="#0000ff" stroke-linecap="round" stroke-width="1" x1="40.433" x2="50.0" y1="153.097" y2="155.0" /><line clip-path="url(#border_clip)" stroke="#0000ff" stroke-linecap="round" stroke-width="1" x1="50.0" x2="50.0" y1="155.0" y2="155.0" /><line clip-path="url(#border_clip)" stroke="#0000ff" stroke-linecap="round" stroke-width="1" x1="50.0" x2="35.0" y1="155.0" y2="138.0" /><text clip-path="url(#border_clip)" fill="#ffffff" style="font-family: Arial; font-size: 13.2; font-style: normal;" text-anchor="start" x="35.0" y="134.4">RG45</text><line clip-path="url(#border_clip)" stroke="#0000ff" stroke-linecap="round" stroke-width="1" x1="300.0" x2="300.0" y1="155.0" y2="155.0" /><line clip-path="url(#border_clip)" stroke="#0000ff" stroke-linecap="round" stroke-width="1" x1="300.0" x2="309.567" y1="155.0" y2="153.097" /><line clip-path="url(#border_clip)" stroke="#0000ff" stroke-linecap="round" stroke-width="1" x1="309.567" x2="317.678" y1="153.097" y2="147.678" /><line clip-path="url(#border_clip)" stroke="#0000ff" stroke-linecap="round" stroke-width="1" x1="317.678" x2="323.097" y1="147.678" y2="139.567" /><line clip-path="url(#border_clip)" stroke="#0000ff" stroke-linecap="round" stroke-width="1" x1="323.097" x2="325.0" y1="139.567" y2="130.0" /><line clip-path="url(#border_clip)" stroke="#0000ff" stroke-linecap="round" stroke-width="1" x1="325.0" x2="323.097" y1="130.0" y2="120.433" /><line clip-path="url(#border_clip)" stroke="#0000ff" stroke-linecap="round" stroke-width="1" x1="323.097" x2="317.678" y1="120.433" y2="112.322" /><line clip-path="url(#border_clip)" stroke="#0000ff" stroke-linecap="round" stroke-width="1" x1="317.678" x2="309.567" y1="112.322" y2="106.903" /><line clip-path="url(#border_clip)" stroke="#0000ff" stroke-linecap="round" stroke-width="1" x1="309.567" x2="300.0" y1="106.903" y2="105.0" /><line clip-path="url(#border_clip)" stroke="#0000ff" stroke-linecap="round" stroke-width="1" x1="300.0" x2="290.433" y1="105.0" y2="106.903" /><line clip-path="url(#border_clip)" stroke="#0000ff" stroke-linecap="round" stroke-width="1" x1="290.433" x2="282.322" y1="106.903" y2="112.322" /><line clip-path="url(#border_clip)" stroke="#0000ff" stroke-linecap="round" stroke-width="1" x1="282.322" x2="276.903" y1="112.322" y2="120.433" /><line clip-path="url(#border_clip)" stroke="#0000ff" stroke-linecap="round" stroke-width="1" x1="276.903" x2="275.0" y1="120.433" y2="130.0" /><line clip-path="url(#border_clip)" stroke="#0000ff" stroke-linecap="round" stroke-width="1" x1="275.0" x2="276.903" y1="130.0" y2="139.567" /><line clip-path="url(#border_clip)" stroke="#0000ff" stroke-linecap="round" stroke-width="1" x1="276.903" x2="282.322" y1="139.567" y2="147.678" /><line clip-path="url(#border_clip)" stroke="#0000ff" stroke-linecap="round" stroke-width="1" x1="282.322" x2="290.433" y1="147.678" y2="153.097" /><line clip-path="url(#border_clip)" stroke="#0000ff" stroke-linecap="round" stroke-width="1" x1="290.433" x2="300.0" y1="153.097" y2="155.0" /><polygon clip-path="url(#border_clip)" fill="#0000ff" fill-rule="evenodd" points="300.0,155.0 309.567,153.097 317.678,147.678 323.097,139.567 325.0,130.0 323.097,120.433 317.678,112.322 309.567,106.903 300.0,105.0 290.433,106.903 282.322,112.322 276.903,120.433 275.0,130.0 276.903,139.567 282.322,147.678 290.433,153.097 300.0,155.0" /><line clip-path="url(#border_clip)" stroke="#0000ff" stroke-linecap="round" stroke-width="1" x1="300.0" x2="309.567" y1="155.0" y2="153.097" /><line clip-path="url(#border_clip)" stroke="#0000ff" stroke-linecap="round" stroke-width="1" x1="309.567" x2="317.678" y1="153.097" y2="147.678" /><line clip-path="url(#border_clip)" stroke="#0000ff" stroke-linecap="round" stroke-width="1" x1="317.678" x2="323.097" y1="147.678" y2="139.567" /><line clip-path="url(#border_clip)" stroke="#0000ff" stroke-linecap="round" stroke-width="1" x1="323.097" x2="325.0" y1="139.567" y2="130.0" /><line clip-path="url(#border_clip)" stroke="#0000ff" stroke-linecap="round" stroke-width="1" x1="325.0" x2="323.097" y1="130.0" y2="120.433" /><line clip-path="url(#border_clip)" stroke="#0000ff" stroke-linecap="round" stroke-width="1" x1="323.097" x2="317.678" y1="120.433" y2="112.322" /><line clip-path="url(#border_clip)" stroke="#0000ff" stroke-linecap="round" stroke-width="1" x1="317.678" x2="309.567" y1="112.322" y2="106.903" /><line clip-path="url(#border_clip)" stroke="#0000ff" stroke-linecap="round" stroke-width="1" x1="309.567" x2="300.0" y1="106.903" y2="105.0" /><line clip-path="url(#border_clip)" stroke="#0000ff" stroke-linecap="round" stroke-width="1" x1="300.0" x2="290.433" y1="105.0" y2="106.903" /><line clip-path="url(#border_clip)" stroke="#0000ff" stroke-linecap="round" stroke-width="1" x1="290.433" x2="282.322" y1="106.903" y2="112.322" /><line clip-path="url(#border_clip)" stroke="#0000ff" stroke-linecap="round" stroke-width="1" x1="282.322" x2="276.903" y1="112.322" y2="120.433" /><line clip-path="url(#border_clip)" stroke="#0000ff" stroke-linecap="round" stroke-width="1" x1="276.903" x2="275.0" y1="120.433" y2="130.0" /><line clip-path="url(#border_clip)" stroke="#0000ff" stroke-linecap="round" stroke-width="1" x1="275.0" x2="276.903" y1="130.0" y2="139.567" /><line clip-path="url(#border_clip)" stroke="#0000ff" stroke-linecap="round" stroke-width="1" x1="276.903" x2="282.322" y1="139.567" y2="147.678" /><line clip-path="url(#border_clip)" stroke="#0000ff" stroke-linecap="round" stroke-width="1" x1="282.322" x2="290.433" y1="147.678" y2="153.097" /><line clip-path="url(#border_clip)" stroke="#0000ff" stroke-linecap="round" stroke-width="1" x1="290.433" x2="300.0" y1="153.097" y2="155.0" /><line clip-path="url(#border_clip)" stroke="#0000ff" stroke-linecap="round" stroke-width="1" x1="300.0" x2="300.0" y1="155.0" y2="155.0" /><text clip-path="url(#border_clip)" fill="#ffffff" style="font-family: Arial; font-size: 13.2; font-style: normal;" text-anchor="start" x="285.0" y="138.4">TRA2</text><text clip-path="url(#border_clip)" fill="#000000" style="font-family: Arial; font-size: 13.2; font-style: normal;" text-anchor="start" x="90.0" y="151.4">hey lorem ipsum lorem in do</text><line clip-path="url(#border_clip)" stroke="#000000" stroke-linecap="round" stroke-width="1" x1="80.0" x2="80.0" y1="110.0" y2="110.0" /><line clip-path="url(#border_clip)" stroke="#000000" stroke-linecap="round" stroke-width="1" x1="80.0" x2="260.0" y1="110.0" y2="110.0" /><line clip-path="url(#border_clip)" stroke="#000000" stroke-linecap="round" stroke-width="1" x1="260.0" x2="260.0" y1="110.0" y2="100.0" /><line clip-path="url(#border_clip)" stroke="#000000" stroke-linecap="round" stroke-width="1" x1="260.0" x2="80.0" y1="100.0" y2="100.0" /><line clip-path="url(#border_clip)" stroke="#000000" stroke-linecap="round" stroke-width="1" x1="80.0" x2="80.0" y1="100.0" y2="110.0" /><polygon clip-path="url(#border_clip)" fill="#00ff00" fill-rule="evenodd" points="80.0,110.0 260.0,110.0 260.0,100.0 80.0,100.0 80.0,110.0" /><line clip-path="url(#border_clip)" stroke="#000000" stroke-linecap="round" stroke-width="1" x1="80.0" x2="260.0" y1="110.0" y2="110.0" /><line clip-path="url(#border_clip)" stroke="#000000" stroke-linecap="round" stroke-width="1" x1="260.0" x2="260.0" y1="110.0" y2="100.0" /><line clip-path="url(#border_clip)" stroke="#000000" stroke-linecap="round" stroke-width="1" x1="260.0" x2="80.0" y1="100.0" y2="100.0" /><line clip-path="url(#border_clip)" stroke="#000000" stroke-linecap="round" stroke-width="1" x1="80.0" x2="80.0" y1="100.0" y2="110.0" /><line clip-path="url(#border_clip)" stroke="#000000" stroke-linecap="round" stroke-width="1" x1="80.0" x2="80.0" y1="110.0" y2="110.0" /><line clip-path="url(#border_clip)" stroke="#000000" stroke-linecap="round" stroke-width="1" x1="80.0" x2="260.0" y1="170.0" y2="170.0" /><line clip-path="url(#border_clip)" stroke="#000000" stroke-linecap="round" stroke-width="1" x1="260.0" x2="260.0" y1="170.0" y2="120.0" /><line clip-path="url(#border_clip)" stroke="#000000" stroke-linecap="round" stroke-width="1" x1="260.0" x2="80.0" y1="120.0" y2="120.0" /><line clip-path="url(#border_clip)" stroke="#000000" stroke-linecap="round" stroke-width="1" x1="80.0" x2="80.0" y1="120.0" y2="170.0" /><line clip-path="url(#border_clip)" stroke="#00ff00" stroke-linecap="round" stroke-width="-5.5" x1="0.0" x2="350.0" y1="600.0" y2="600.0" /><line clip-path="url(#border_clip)" stroke="#00ff00" stroke-linecap="round" stroke-width="-5.5" x1="350.0" x2="350.0" y1="600.0" y2="0.0" /><line clip-path="url(#border_clip)" stroke="#00ff00" stroke-linecap="round" stroke-width="-5.5" x1="350.0" x2="0.0" y1="0.0" y2="0.0" /><line clip-path="url(#border_clip)" stroke="#00ff00" stroke-linecap="round" stroke-width="-5.5" x1="0.0" x2="-0.0" y1="0.0" y2="600.0" /><line clip-path="url(#border_clip)" stroke="#00ff00" stroke-linecap="round" stroke-width="-5.5" x1="400.0" x2="750.0" y1="600.0" y2="600.0" /><line clip-path="url(#border_clip)" stroke="#00ff00" stroke-linecap="round" stroke-width="-5.5" x1="750.0" x2="750.0" y1="600.0" y2="0.0" /><line clip-path="url(#border_clip)" stroke="#00ff00" stroke-linecap="round" stroke-width="-5.5" x1="750.0" x2="400.0" y1="0.0" y2="-0.0" /><line clip-path="url(#border_clip)" stroke="#00ff00" stroke-linecap="round" stroke-width="-5.5" x1="400.0" x2="400.0" y1="-0.0" y2="600.0" /><line clip-path="url(#border_clip)" stroke="#00ff00" stroke-linecap="round" stroke-width="1" x1="450.0" x2="450.0" y1="200.0" y2="200.0" /><line clip-path="url(#border_clip)" stroke="#00ff00" stroke-linecap="round" stroke-width="-5.5" x1="450.0" x2="700.0" y1="200.0" y2="200.0" /><line clip-path="url(#border_clip)" stroke="#00ff00" stroke-linecap="round" stroke-width="-5.5" x1="700.0" x2="700.0" y1="200.0" y2="50.0" /><line clip-path="url(#border_clip)" stroke="#00ff00" stroke-linecap="round" stroke-width="-5.5" x1="700.0" x2="450.0" y1="50.0" y2="50.0" /><line clip-path="url(#border_clip)" stroke="#00ff00" stroke-linecap="round" stroke-width="-5.5" x1="450.0" x2="450.0" y1="50.0" y2="200.0" /><polygon clip-path="url(#border_clip)" fill="#ffffff" fill-rule="evenodd" points="450.0,200.0 700.0,200.0 700.0,50.0 450.0,50.0 450.0,200.0" /><line clip-path="url(#border_clip)" stroke="#00ff00" stroke-linecap="round" stroke-width="-5.5" x1="450.0" x2="700.0" y1="200.0" y2="200.0" /><line clip-path="url(#border_clip)" stroke="#00ff00" stroke-linecap="round" stroke-width="-5.5" x1="700.0" x2="700.0" y1="200.0" y2="50.0" /><line clip-path="url(#border_clip)" stroke="#00ff00" stroke-linecap="round" stroke-width="-5.5" x1="700.0" x2="450.0" y1="50.0" y2="50.0" /><line clip-path="url(#border_clip)" stroke="#00ff00" stroke-linecap="round" stroke-width="-5.5" x1="450.0" x2="450.0" y1="50.0" y2="200.0" /><line clip-path="url(#border_clip)" stroke="#00ff00" stroke-linecap="round" stroke-width="1" x1="450.0" x2="450.0" y1="200.0" y2="200.0" /><line clip-path="url(#border_clip)" stroke="#0000ff" stroke-linecap="round" stroke-width="1" x1="450.0" x2="450.0" y1="155.0" y2="155.0" /><line clip-path="url(#border_clip)" stroke="#0000ff" stroke-linecap="round" stroke-width="-5.5" x1="450.0" x2="459.567" y1="155.0" y2="153.097" /><line clip-path="url(#border_clip)" stroke="#0000ff" stroke-linecap="round" stroke-width="-5.5" x1="459.567" x2="467.678" y1="153.097" y2="147.678" /><line clip-path="url(#border_clip)" stroke="#0000ff" stroke-linecap="round" stroke-width="-5.5" x1="467.678" x2="473.097" y1="147.678" y2="139.567" /><line clip-path="url(#border_clip)" stroke="#0000ff" stroke-linecap="round" stroke-width="-5.5" x1="473.097" x2="475.0" y1="139.567" y2="130.0" /><line clip-path="url(#border_clip)" stroke="#0000ff" stroke-linecap="round" stroke-width="-5.5" x1="475.0" x2="473.097" y1="130.0" y2="120.433" /><line clip-path="url(#border_clip)" stroke="#0000ff" stroke-linecap="round" stroke-width="-5.5" x1="473.097" x2="467.678" y1="120.433" y2="112.322" /><line clip-path="url(#border_clip)" stroke="#0000ff" stroke-linecap="round" stroke-width="-5.5" x1="467.678" x2="459.567" y1="112.322" y2="106.903" /><line clip-path="url(#border_clip)" stroke="#0000ff" stroke-linecap="round" stroke-width="-5.5" x1="459.567" x2="450.0" y1="106.903" y2="105.0" /><line clip-path="url(#border_clip)" stroke="#0000ff" stroke-linecap="round" stroke-width="-5.5" x1="450.0" x2="440.433" y1="105.0" y2="106.903" /><line clip-path="url(#border_clip)" stroke="#0000ff" stroke-linecap="round" stroke-width="-5.5" x1="440.433" x2="432.322" y1="106.903" y2="112.322" /><line clip-path="url(#border_clip)" stroke="#0000ff" stroke-linecap="round" stroke-width="-5.5" x1="432.322" x2="426.903" y1="112.322" y2="120.433" /><line clip-path="url(#border_clip)" stroke="#0000ff" stroke-linecap="round" stroke-width="-5.5" x1="426.903" x2="425.0" y1="120.433" y2="130.0" /><line clip-path="url(#border_clip)" stroke="#0000ff" stroke-linecap="round" stroke-width="-5.5" x1="425.0" x2="426.903" y1="130.0" y2="139.567" /><line clip-path="url(#border_clip)" stroke="#0000ff" stroke-linecap="round" stroke-width="-5.5" x1="426.903" x2="432.322" y1="139.567" y2="147.678" /><line clip-path="url(#border_clip)" stroke="#0000ff" stroke-linecap="round" stroke-width="-5.5" x1="432.322" x2="440.433" y1="147.678" y2="153.097" /><line clip-path="url(#border_clip)" stroke="#0000ff" stroke-linecap="round" stroke-width="-5.5" x1="440.433" x2="450.0" y1="153.097" y2="155.0" /><polygon clip-path="url(#border_clip)" fill="#0000ff" fill-rule="evenodd" points="450.0,155.0 459.567,153.097 467.678,147.678 473.097,139.567 475.0,130.0 473.097,120.433 467.678,112.322 459.567,106.903 450.0,105.0 440.433,106.903 432.322,112.322 426.903,120.433 425.0,130.0 426.903,139.567 432.322,147.678 440.433,153.097 450.0,155.0" /><line clip-path="url(#border_clip)" stroke="#0000ff" stroke-linecap="round" stroke-width="-5.5" x1="450.0" x2="459.567" y1="155.0" y2="153.097" /><line clip-path="url(#border_clip)" stroke="#0000ff" stroke-linecap="round" stroke-width="-5.5" x1="459.567" x2="467.678" y1="153.097" y2="147.678" /><line clip-path="url(#border_clip)" stroke="#0000ff" stroke-linecap="round" stroke-width="-5.5" x1="467.678" x2="473.097" y1="147.678" y2="139.567" /><line clip-path="url(#border_clip)" stroke="#0000ff" stroke-linecap="round" stroke-width="-5.5" x1="473.097" x2="475.0" y1="139.567" y2="130.0" /><line clip-path="url(#border_clip)" stroke="#0000ff" stroke-linecap="round" stroke-width="-5.5" x1="475.0" x2="473.097" y1="130.0" y2="120.433" /><line clip-path="url(#border_clip)" stroke="#0000ff" stroke-linecap="round" stroke-width="-5.5" x1="473.097" x2="467.678" y1="120.433" y2="112.322" /><line clip-path="url(#border_clip)" stroke="#0000ff" stroke-linecap="round" stroke-width="-5.5" x1="467.678" x2="459.567" y1="112.322" y2="106.903" /><line clip-path="url(#border_clip)" stroke="#0000ff" stroke-linecap="round" stroke-width="-5.5" x1="459.567" x2="450.0" y1="106.903" y2="105.0" /><line clip-path="url(#border_clip)" stroke="#0000ff" stroke-linecap="round" stroke-width="-5.5" x1="450.0" x2="440.433" y1="105.0" y2="106.903" /><line clip-path="url(#border_clip)" stroke="#0000ff" stroke-linecap="round" stroke-width="-5.5" x1="440.433" x2="432.322" y1="106.903" y2="112.322" /><line clip-path="url(#border_clip)" stroke="#0000ff" stroke-linecap="round" stroke-width="-5.5" x1="432.322" x2="426.903" y1="112.322" y2="120.433" /><line clip-path="url(#border_clip)" stroke="#0000ff" stroke-linecap="round" stroke-width="-5.5" x1="426.903" x2="425.0" y1="120.433" y2="130.0" /><line clip-path="url(#border_clip)" stroke="#0000ff" stroke-linecap="round" stroke-width="-5.5" x1="425.0" x2="426.903" y1="130.0" y2="139.567" /><line clip-path="url(#border_clip)" stroke="#0000ff" stroke-linecap="round" stroke-width="-5.5" x1="426.903" x2="432.322" y1="139.567" y2="147.678" /><line clip-path="url(#border_clip)" stroke="#0000ff" stroke-linecap="round" stroke-width="-5.5" x1="432.322" x2="440.433" y1="147.678" y2="153.097" /><line clip-path="url(#border_clip)" stroke="#0000ff" stroke-linecap="round" stroke-width="-5.5" x1="440.433" x2="450.0" y1="153.097" y2="155.0" /><line clip-path="url(#border_clip)" stroke="#0000ff" stroke-linecap="round" stroke-width="1" x1="450.0" x2="450.0" y1="155.0" y2="155.0" /><line clip-path="url(#border_clip)" stroke="#0000ff" stroke-linecap="round" stroke-width="-5.5" x1="450.0" x2="435.0" y1="155.0" y2="138.0" /><text clip-path="url(#border_clip)" fill="#ffffff" style="font-family: Arial; font-size: 13.2; font-style: normal;" text-anchor="start" x="435.0" y="134.4">TRA2</text><line clip-path="url(#border_clip)" stroke="#0000ff" stroke-linecap="round" stroke-width="1" x1="700.0" x2="700.0" y1="155.0" y2="155.0" /><line clip-path="url(#border_clip)" stroke="#0000ff" stroke-linecap="round" stroke-width="-5.5" x1="700.0" x2="709.567" y1="155.0" y2="153.097" /><line clip-path="url(#border_clip)" stroke="#0000ff" stroke-linecap="round" stroke-width="-5.5" x1="709.567" x2="717.678" y1="153.097" y2="147.678" /><line clip-path="url(#border_clip)" stroke="#0000ff" stroke-linecap="round" stroke-width="-5.5" x1="717.678" x2="723.097" y1="147.678" y2="139.567" /><line clip-path="url(#border_clip)" stroke="#0000ff" stroke-linecap="round" stroke-width="-5.5" x1="723.097" x2="725.0" y1="139.567" y2="130.0" /><line clip-path="url(#border_clip)" stroke="#0000ff" stroke-linecap="round" stroke-width="-5.5" x1="725.0" x2="723.097" y1="130.0" y2="120.433" /><line clip-path="url(#border_clip)" stroke="#0000ff" stroke-linecap="round" stroke-width="-5.5" x1="723.097" x2="717.678" y1="120.433" y2="112.322" /><line clip-path="url(#border_clip)" stroke="#0000ff" stroke-linecap="round" stroke-width="-5.5" x1="717.678" x2="709.567" y1="112.322" y2="106.903" /><line clip-path="url(#border_clip)" stroke="#0000ff" stroke-linecap="round" stroke-width="-5.5" x1="709.567" x2="700.0" y1="106.903" y2="105.0" /><line clip-path="url(#border_clip)" stroke="#0000ff" stroke-linecap="round" stroke-width="-5.5" x1="700.0" x2="690.433" y1="105.0" y2="106.903" /><line clip-path="url(#border_clip)" stroke="#0000ff" stroke-linecap="round" stroke-width="-5.5" x1="690.433" x2="682.322" y1="106.903" y2="112.322" /><line clip-path="url(#border_clip)" stroke="#0000ff" stroke-linecap="round" stroke-width="-5.5" x1="682.322" x2="676.903" y1="112.322" y2="120.433" /><line clip-path="url(#border_clip)" stroke="#0000ff" stroke-linecap="round" stroke-width="-5.5" x1="676.903" x2="675.0" y1="120.433" y2="130.0" /><line clip-path="url(#border_clip)" stroke="#0000ff" stroke-linecap="round" stroke-width="-5.5" x1="675.0" x2="676.903" y1="130.0" y2="139.567" /><line clip-path="url(#border_clip)" stroke="#0000ff" stroke-linecap="round" stroke-width="-5.5" x1="676.903" x2="682.322" y1="139.567" y2="147.678" /><line clip-path="url(#border_clip)" stroke="#0000ff" stroke-linecap="round" stroke-width="-5.5" x1="682.322" x2="690.433" y1="147.678" y2="153.097" /><line clip-path="url(#border_clip)" stroke="#0000ff" stroke-linecap="round" stroke-width="-5.5" x1="690.433" x2="700.0" y1="153.097" y2="155.0" /><polygon clip-path="url(#border_clip)" fill="#0000ff" fill-rule="evenodd" points="700.0,155.0 709.567,153.097 717.678,147.678 723.097,139.567 725.0,130.0 723.097,120.433 717.678,112.322 709.567,106.903 700.0,105.0 690.433,106.903 682.322,112.322 676.903,120.433 675.0,130.0 676.903,139.567 682.322,147.678 690.433,153.097 700.0,155.0" /><line clip-path="url(#border_clip)" stroke="#0000ff" stroke-linecap="round" stroke-width="-5.5" x1="700.0" x2="709.567" y1="155.0" y2="153.097" /><line clip-path="url(#border_clip)" stroke="#0000ff" stroke-linecap="round" stroke-width="-5.5" x1="709.567" x2="717.678" y1="153.097" y2="147.678" /><line clip-path="url(#border_clip)" stroke="#0000ff" stroke-linecap="round" stroke-width="-5.5" x1="717.678" x2="723.097" y1="147.678" y2="139.567" /><line clip-path="url(#border_clip)" stroke="#0000ff" stroke-linecap="round" stroke-width="-5.5" x1="723.097" x2="725.0" y1="139.567" y2="130.0" /><line clip-path="url(#border_clip)" stroke="#0000ff" stroke-linecap="round" stroke-width="-5.5" x1="725.0" x2="723.097" y1="130.0" y2="120.433" /><line clip-path="url(#border_clip)" stroke="#0000ff" stroke-linecap="round" stroke-width="-5.5" x1="723.097" x2="717.678" y1="120.433" y2="112.322" /><line clip-path="url(#border_clip)" stroke="#0000ff" stroke-linecap="round" stroke-width="-5.5" x1="717.678" x2="709.567" y1="112.322" y2="106.903" /><line clip-path="url(#border_clip)" stroke="#0000ff" stroke-linecap="round" stroke-width="-5.5" x1="709.567" x2="700.0" y1="106.903" y2="105.0" /><line clip-path="url(#border_clip)" stroke="#0000ff" stroke-linecap="round" stroke-width="-5.5" x1="700.0" x2="690.433" y1="105.0" y2="106.903" /><line clip-path="url(#border_clip)" stroke="#0000ff" stroke-linecap="round" stroke-width="-5.5" x1="690.433" x2="682.322" y1="106.903" y2="112.322" /><line clip-path="url(#border_clip)" stroke="#0000ff" stroke-linecap="round" stroke-width="-5.5" x1="682.322" x2="676.903" y1="112.322" y2="120.433" /><line clip-path="url(#border_clip)" stroke="#0000ff" stroke-linecap="round" stroke-width="-5.5" x1="676.903" x2="675.0" y1="120.433" y2="130.0" /><line clip-path="url(#border_clip)" stroke="#0000ff" stroke-linecap="round" stroke-width="-5.5" x1="675.0" x2="676.903" y1="130.0" y2="139.567" /><line clip-path="url(#border_clip)" stroke="#0000ff" stroke-linecap="round" stroke-width="-5.5" x1="676.903" x2="682.322" y1="139.567" y2="147.678" /><line clip-path="url(#border_clip)" stroke="#0000ff" stroke-linecap="round" stroke-width="-5.5" x1="682.322" x2="690.433" y1="147.678" y2="153.097" /><line clip-path="url(#border_clip)" stroke="#0000ff" stroke-linecap="round" stroke-width="-5.5" x1="690.433" x2="700.0" y1="153.097" y2="155.0" /><line clip-path="url(#border_clip)" stroke="#0000ff" stroke-linecap="round" stroke-width="1" x1="700.0" x2="700.0" y1="155.0" y2="155.0" /><text clip-path="url(#border_clip)" fill="#ffffff" style="font-family: Arial; font-size: 13.2; font-style: normal;" text-anchor="start" x="685.0" y="138.4">ERT4</text><text clip-path="url(#border_clip)" fill="#000000" style="font-family: Arial; font-size: 13.2; font-style: normal;" text-anchor="start" x="490.0" y="151.4">hey lorem ipsum lorem in do</text><line clip-path="url(#border_clip)" stroke="#000000" stroke-linecap="round" stroke-width="1" x1="480.0" x2="480.0" y1="110.0" y2="110.0" /><line clip-path="url(#border_clip)" stroke="#000000" stroke-linecap="round" stroke-width="-5.5" x1="480.0" x2="660.0" y1="110.0" y2="110.0" /><line clip-path="url(#border_clip)" stroke="#000000" stroke-linecap="round" stroke-width="-5.5" x1="660.0" x2="660.0" y1="110.0" y2="100.0" /><line clip-path="url(#border_clip)" stroke="#000000" stroke-linecap="round" stroke-width="-5.5" x1="660.0" x2="480.0" y1="100.0" y2="100.0" /><line clip-path="url(#border_clip)" stroke="#000000" stroke-linecap="round" stroke-width="-5.5" x1="480.0" x2="480.0" y1="100.0" y2="110.0" /><polygon clip-path="url(#border_clip)" fill="#ffff00" fill-rule="evenodd" points="480.0,110.0 660.0,110.0 660.0,100.0 480.0,100.0 480.0,110.0" /><line clip-path="url(#border_clip)" stroke="#000000" stroke-linecap="round" stroke-width="-5.5" x1="480.0" x2="660.0" y1="110.0" y2="110.0" /><line clip-path="url(#border_clip)" stroke="#000000" stroke-linecap="round" stroke-width="-5.5" x1="660.0" x2="660.0" y1="110.0" y2="100.0" /><line clip-path="url(#border_clip)" stroke="#000000" stroke-linecap="round" stroke-width="-5.5" x1="660.0" x2="480.0" y1="100.0" y2="100.0" /><line clip-path="url(#border_clip)" stroke="#000000" stroke-linecap="round" stroke-width="-5.5" x1="480.0" x2="480.0" y1="100.0" y2="110.0" /><line clip-path="url(#border_clip)" stroke="#000000" stroke-linecap="round" stroke-width="1" x1="480.0" x2="480.0" y1="110.0" y2="110.0" /><line clip-path="url(#border_clip)" stroke="#000000" stroke-linecap="round" stroke-width="-5.5" x1="480.0" x2="660.0" y1="170.0" y2="170.0" /><line clip-path="url(#border_clip)" stroke="#000000" stroke-linecap="round" stroke-width="-5.5" x1="660.0" x2="660.0" y1="170.0" y2="120.0" /><line clip-path="url(#border_clip)" stroke="#000000" stroke-linecap="round" stroke-width="-5.5" x1="660.0" x2="480.0" y1="120.0" y2="120.0" /><line clip-path="url(#border_clip)" stroke="#000000" stroke-linecap="round" stroke-width="-5.5" x1="480.0" x2="480.0" y1="120.0" y2="170.0" /><line clip-path="url(#border_clip)" stroke="#00ff00" stroke-linecap="round" stroke-width="5.5" x1="322.0" x2="425.0" y1="135.0" y2="140.0" /></svg>