<?xml version="1.0" encoding="utf-8" ?>
<svg baseProfile="full" height="2000" version="1.1" width="2000px" xmlns="http://www.w3.org/2000/svg" xmlns:ev="http://www.w3.org/2001/xml-events" xmlns:xlink="http://www.w3.org/1999/xlink"><defs><clipPath id="border_clip"><rect height="2000" width="2000" x="0" y="0" /></clipPath></defs><line clip-path="url(#border_clip)" stroke="#000000" stroke-linecap="round" stroke-width="1" x1="0.0" x2="300.0" y1="600.0" y2="600.0" /><line clip-path="url(#border_clip)" stroke="#000000" stroke-linecap="round" stroke-width="1" x1="300.0" x2="300.0" y1="600.0" y2="0.0" /><line clip-path="url(#border_clip)" stroke="#000000" stroke-linecap="round" stroke-width="1" x1="300.0" x2="0.0" y1="0.0" y2="0.0" /><line clip-path="url(#border_clip)" stroke="#000000" stroke-linecap="round" stroke-width="1" x1="0.0" x2="-0.0" y1="0.0" y2="600.0" /><line clip-path="url(#border_clip)" stroke="#000000" stroke-linecap="round" stroke-width="1" x1="400.0" x2="700.0" y1="600.0" y2="600.0" /><line clip-path="url(#border_clip)" stroke="#000000" stroke-linecap="round" stroke-width="1" x1="700.0" x2="700.0" y1="600.0" y2="0.0" /><line clip-path="url(#border_clip)" stroke="#000000" stroke-linecap="round" stroke-width="1" x1="700.0" x2="400.0" y1="0.0" y2="-0.0" /><line clip-path="url(#border_clip)" stroke="#000000" stroke-linecap="round" stroke-width="1" x1="400.0" x2="400.0" y1="-0.0" y2="600.0" /><line clip-path="url(#border_clip)" stroke="#000000" stroke-linecap="round" stroke-width="1" x1="800.0" x2="1100.0" y1="600.0" y2="600.0" /><line clip-path="url(#border_clip)" stroke="#000000" stroke-linecap="round" stroke-width="1" x1="1100.0" x2="1100.0" y1="600.0" y2="0.0" /><line clip-path="url(#border_clip)" stroke="#000000" stroke-linecap="round" stroke-width="1" x1="1100.0" x2="800.0" y1="0.0" y2="0.0" /><line clip-path="url(#border_clip)" stroke="#000000" stroke-linecap="round" stroke-width="1" x1="800.0" x2="800.0" y1="0.0" y2="600.0" /><line clip-path="url(#border_clip)" stroke="#000000" stroke-linecap="round" stroke-width="1" x1="1200.0" x2="1500.0" y1="600.0" y2="600.0" /><line clip-path="url(#border_clip)" stroke="#000000" stroke-linecap="round" stroke-width="1" x1="1500.0" x2="1500.0" y1="600.0" y2="0.0" /><line clip-path="url(#border_clip)" stroke="#000000" stroke-linecap="round" stroke-width="1" x1="1500.0" x2="1200.0" y1="0.0" y2="0.0" /><line clip-path="url(#border_clip)" stroke="#000000" stroke-linecap="round" stroke-width="1" x1="1200.0" x2="1200.0" y1="0.0" y2="600.0" /><line clip-path="url(#border_clip)" stroke="#000000" stroke-linecap="round" stroke-width="1" x1="1600.0" x2="1900.0" y1="600.0" y2="600.0" /><line clip-path="url(#border_clip)" stroke="#000000" stroke-linecap="round" stroke-width="1" x1="1900.0" x2="1900.0" y1="600.0" y2="0.0" /><line clip-path="url(#border_clip)" stroke="#000000" stroke-linecap="round" stroke-width="1" x1="1900.0" x2="1600.0" y1="0.0" y2="-0.0" /><line clip-path="url(#border_clip)" stroke="#000000" stroke-linecap="round" stroke-width="1" x1="1600.0" x2="1600.0" y1="-0.0" y2="600.0" /></svg>