<?xml version="1.0" encoding="utf-8" ?>
<svg baseProfile="full" height="2000px" version="1.1" width="2000px" xmlns="http://www.w3.org/2000/svg" xmlns:ev="http://www.w3.org/2001/xml-events" xmlns:xlink="http://www.w3.org/1999/xlink"><defs><clipPath id="border_clip"><rect height="2000" width="2000" x="0" y="0" /></clipPath></defs><line clip-path="url(#border_clip)" stroke="#00ff00" stroke-linecap="round" stroke-width="1" x1="0.0" x2="350.0" y1="600.0" y2="600.0" /><line clip-path="url(#border_clip)" stroke="#00ff00" stroke-linecap="round" stroke-width="1" x1="350.0" x2="350.0" y1="600.0" y2="0.0" /><line clip-path="url(#border_clip)" stroke="#00ff00" stroke-linecap="round" stroke-width="1" x1="350.0" x2="0.0" y1="0.0" y2="0.0" /><line clip-path="url(#border_clip)" stroke="#00ff00" stroke-linecap="round" stroke-width="1" x1="0.0" x2="-0.0" y1="0.0" y2="600.0" /><line clip-path="url(#border_clip)" stroke="#00ff00" stroke-linecap="round" stroke-width="1" x1="50.0" x2="50.0" y1="400.0" y2="400.0" /><line clip-path="url(#border_clip)" stroke="#00ff00" stroke-linecap="round" stroke-width="1" x1="50.0" x2="300.0" y1="400.0" y2="400.0" /><line clip-path="url(#border_clip)" stroke="#00ff00" stroke-linecap="round" stroke-width="1" x1="300.0" x2="300.0" y1="400.0" y2="250.0" /><line clip-path="url(#border_clip)" stroke="#00ff00" stroke-linecap="round" stroke-width="1" x1="300.0" x2="50.0" y1="250.0" y2="250.0" /><line clip-path="url(#border_clip)" stroke="#00ff00" stroke-linecap="round" stroke-width="1" x1="50.0" x2="50.0" y1="250.0" y2="400.0" /><polygon clip-path="url(#border_clip)" fill="#ffffff" fill-rule="evenodd" points="50.0,400.0 300.0,400.0 300.0,250.0 50.0,250.0 50.0,400.0" /><line clip-path="url(#border_clip)" stroke="#00ff00" stroke-linecap="round" stroke-width="1" x1="50.0" x2="300.0" y1="400.0" y2="400.0" /><line clip-path="url(#border_clip)" stroke="#00ff00" stroke-linecap="round" stroke-width="1" x1="300.0" x2="300.0" y1="400.0" y2="250.0" /><line clip-path="url(#border_clip)" stroke="#00ff00" stroke-linecap="round" stroke-width="1" x1="300.0" x2="50.0" y1="250.0" y2="250.0" /><line clip-path="url(#border_clip)" stroke="#00ff00" stroke-linecap="round" stroke-width="1" x1="50.0" x2="50.0" y1="250.0" y2="400.0" /><line clip-path="url(#border_clip)" stroke="#00ff00" stroke-linecap="round" stroke-width="1" x1="50.0" x2="50.0" y1="400.0" y2="400.0" /><line clip-path="url(#border_clip)" stroke="#0000ff" stroke-linecap="round" stroke-width="1" x1="50.0" x2="50.0" y1="355.0" y2="355.0" /><line clip-path="url(#border_clip)" stroke="#0000ff" stroke-linecap="round" stroke-width="1" x1="50.0" x2="59.567" y1="355.0" y2="353.097" /><line clip-path="url(#border_clip)" stroke="#0000ff" stroke-linecap="round" stroke-width="1" x1="59.567" x2="67.678" y1="353.097" y2="347.678" /><line clip-path="url(#border_clip)" stroke="#0000ff" stroke-linecap="round" stroke-width="1" x1="67.678" x2="73.097" y1="347.678" y2="339.567" /><line clip-path="url(#border_clip)" stroke="#0000ff" stroke-linecap="round" stroke-width="1" x1="73.097" x2="75.0" y1="339.567" y2="330.0" /><line clip-path="url(#border_clip)" stroke="#0000ff" stroke-linecap="round" stroke-width="1" x1="75.0" x2="73.097" y1="330.0" y2="320.433" /><line clip-path="url(#border_clip)" stroke="#0000ff" stroke-linecap="round" stroke-width="1" x1="73.097" x2="67.678" y1="320.433" y2="312.322" /><line clip-path="url(#border_clip)" stroke="#0000ff" stroke-linecap="round" stroke-width="1" x1="67.678" x2="59.567" y1="312.322" y2="306.903" /><line clip-path="url(#border_clip)" stroke="#0000ff" stroke-linecap="round" stroke-width="1" x1="59.567" x2="50.0" y1="306.903" y2="305.0" /><line clip-path="url(#border_clip)" stroke="#0000ff" stroke-linecap="round" stroke-width="1" x1="50.0" x2="40.433" y1="305.0" y2="306.903" /><line clip-path="url(#border_clip)" stroke="#0000ff" stroke-linecap="round" stroke-width="1" x1="40.433" x2="32.322" y1="306.903" y2="312.322" /><line clip-path="url(#border_clip)" stroke="#0000ff" stroke-linecap="round" stroke-width="1" x1="32.322" x2="26.903" y1="312.322" y2="320.433" /><line clip-path="url(#border_clip)" stroke="#0000ff" stroke-linecap="round" stroke-width="1" x1="26.903" x2="25.0" y1="320.433" y2="330.0" /><line clip-path="url(#border_clip)" stroke="#0000ff" stroke-linecap="round" stroke-width="1" x1="25.0" x2="26.903" y1="330.0" y2="339.567" /><line clip-path="url(#border_clip)" stroke="#0000ff" stroke-linecap="round" stroke-width="1" x1="26.903" x2="32.322" y1="339.567" y2="347.678" /><line clip-path="url(#border_clip)" stroke="#0000ff" stroke-linecap="round" stroke-width="1" x1="32.322" x2="40.433" y1="347.678" y2="353.097" /><line clip-path="url(#border_clip)" stroke="#0000ff" stroke-linecap="round" stroke-width="1" x1="40.433" x2="50.0" y1="353.097" y2="355.0" /><polygon clip-path="url(#border_clip)" fill="#0000ff" fill-rule="evenodd" points="50.0,355.0 59.567,353.097 67.678,347.678 73.097,339.567 75.0,330.0 73.097,320.433 67.678,312.322 59.567,306.903 50.0,305.0 40.433,306.903 32.322,312.322 26.903,320.433 25.0,330.0 26.903,339.567 32.322,347.678 40.433,353.097 50.0,355.0" /><line clip-path="url(#border_clip)" stroke="#0000ff" stroke-linecap="round" stroke-width="1" x1="50.0" x2="59.567" y1="355.0" y2="353.097" /><line clip-path="url(#border_clip)" stroke="#0000ff" stroke-linecap="round" stroke-width="1" x1="59.567" x2="67.678" y1="353.097" y2="347.678" /><line clip-path="url(#border_clip)" stroke="#0000ff" stroke-linecap="round" stroke-width="1" x1="67.678" x2="73.097" y1="347.678" y2="339.567" /><line clip-path="url(#border_clip)" stroke="#0000ff" stroke-linecap="round" stroke-width="1" x1="73.097" x2="75.0" y1="339.567" y2="330.0" /><line clip-path="url(#border_clip)" stroke="#0000ff" stroke-linecap="round" stroke-width="1" x1="75.0" x2="73.097" y1="330.0" y2="320.433" /><line clip-path="url(#border_clip)" stroke="#0000ff" stroke-linecap="round" stroke-width="1" x1="73.097" x2="67.678" y1="320.433" y2="312.322" /><line clip-path="url(#border_clip)" stroke="#0000ff" stroke-linecap="round" stroke-width="1" x1="67.678" x2="59.567" y1="312.322" y2="306.903" /><line clip-path="url(#border_clip)" stroke="#0000ff" stroke-linecap="round" stroke-width="1" x1="59.567" x2="50.0" y1="306.903" y2="305.0" /><line clip-path="url(#border_clip)" stroke="#0000ff" stroke-linecap="round" stroke-width="1" x1="50.0" x2="40.433" y1="305.0" y2="306.903" /><line clip-path="url(#border_clip)" stroke="#0000ff" stroke-linecap="round" stroke-width="1" x1="40.433" x2="32.322" y1="306.903" y2="312.322" /><line clip-path="url(#border_clip)" stroke="#0000ff" stroke-linecap="round" stroke-width="1" x1="32.322" x2="26.903" y1="312.322" y2="320.433" /><line clip-path="url(#border_clip)" stroke="#0000ff" stroke-linecap="round" stroke-width="1" x1="26.903" x2="25.0" y1="320.433" y2="330.0" /><line clip-path="url(#border_clip)" stroke="#0000ff" stroke-linecap="round" stroke-width="1" x1="25.0" x2="26.903" y1="330.0" y2="339.567" /><line clip-path="url(#border_clip)" stroke="#0000ff" stroke-linecap="round" stroke-width="1" x1="26.903" x2="32.322" y1="339.567" y2="347.678" /><line clip-path="url(#border_clip)" stroke="#0000ff" stroke-linecap="round" stroke-width="1" x1="32.322" x2="40.433" y1="347.678" y2="353.097" /><line clip-path="url(#border_clip)" stroke="#0000ff" stroke-linecap="round" stroke-width="1" x1="40.433" x2="50.0" y1="353.097" y2="355.0" /><line clip-path="url(#border_clip)" stroke="#0000ff" stroke-linecap="round" stroke-width="1" x1="50.0" x2="50.0" y1="355.0" y2="355.0" /><line clip-path="url(#border_clip)" stroke="#0000ff" stroke-linecap="round" stroke-width="1" x1="50.0" x2="35.0" y1="355.0" y2="338.0" /><text clip-path="url(#border_clip)" fill="#ffffff" style="font-family: Arial; font-size: 13.2; font-style: normal;" text-anchor="start" x="35.0" y="334.4">H123</text><line clip-path="url(#border_clip)" stroke="#0000ff" stroke-linecap="round" stroke-width="1" x1="300.0" x2="300.0" y1="355.0" y2="355.0" /><line clip-path="url(#border_clip)" stroke="#0000ff" stroke-linecap="round" stroke-width="1" x1="300.0" x2="309.567" y1="355.0" y2="353.097" /><line clip-path="url(#border_clip)" stroke="#0000ff" stroke-linecap="round" stroke-width="1" x1="309.567" x2="317.678" y1="353.097" y2="347.678" /><line clip-path="url(#border_clip)" stroke="#0000ff" stroke-linecap="round" stroke-width="1" x1="317.678" x2="323.097" y1="347.678" y2="339.567" /><line clip-path="url(#border_clip)" stroke="#0000ff" stroke-linecap="round" stroke-width="1" x1="323.097" x2="325.0" y1="339.567" y2="330.0" /><line clip-path="url(#border_clip)" stroke="#0000ff" stroke-linecap="round" stroke-width="1" x1="325.0" x2="323.097" y1="330.0" y2="320.433" /><line clip-path="url(#border_clip)" stroke="#0000ff" stroke-linecap="round" stroke-width="1" x1="323.097" x2="317.678" y1="320.433" y2="312.322" /><line clip-path="url(#border_clip)" stroke="#0000ff" stroke-linecap="round" stroke-width="1" x1="317.678" x2="309.567" y1="312.322" y2="306.903" /><line clip-path="url(#border_clip)" stroke="#0000ff" stroke-linecap="round" stroke-width="1" x1="309.567" x2="300.0" y1="306.903" y2="305.0" /><line clip-path="url(#border_clip)" stroke="#0000ff" stroke-linecap="round" stroke-width="1" x1="300.0" x2="290.433" y1="305.0" y2="306.903" /><line clip-path="url(#border_clip)" stroke="#0000ff" stroke-linecap="round" stroke-width="1" x1="290.433" x2="282.322" y1="306.903" y2="312.322" /><line clip-path="url(#border_clip)" stroke="#0000ff" stroke-linecap="round" stroke-width="1" x1="282.322" x2="276.903" y1="312.322" y2="320.433" /><line clip-path="url(#border_clip)" stroke="#0000ff" stroke-linecap="round" stroke-width="1" x1="276.903" x2="275.0" y1="320.433" y2="330.0" /><line clip-path="url(#border_clip)" stroke="#0000ff" stroke-linecap="round" stroke-width="1" x1="275.0" x2="276.903" y1="330.0" y2="339.567" /><line clip-path="url(#border_clip)" stroke="#0000ff" stroke-linecap="round" stroke-width="1" x1="276.903" x2="282.322" y1="339.567" y2="347.678" /><line clip-path="url(#border_clip)" stroke="#0000ff" stroke-linecap="round" stroke-width="1" x1="282.322" x2="290.433" y1="347.678" y2="353.097" /><line clip-path="url(#border_clip)" stroke="#0000ff" stroke-linecap="round" stroke-width="1" x1="290.433" x2="300.0" y1="353.097" y2="355.0" /><polygon clip-path="url(#border_clip)" fill="#0000ff" fill-rule="evenodd" points="300.0,355.0 309.567,353.097 317.678,347.678 323.097,339.567 325.0,330.0 323.097,320.433 317.678,312.322 309.567,306.903 300.0,305.0 290.433,306.903 282.322,312.322 276.903,320.433 275.0,330.0 276.903,339.567 282.322,347.678 290.433,353.097 300.0,355.0" /><line clip-path="url(#border_clip)" stroke="#0000ff" stroke-linecap="round" stroke-width="1" x1="300.0" x2="309.567" y1="355.0" y2="353.097" /><line clip-path="url(#border_clip)" stroke="#0000ff" stroke-linecap="round" stroke-width="1" x1="309.567" x2="317.678" y1="353.097" y2="347.678" /><line clip-path="url(#border_clip)" stroke="#0000ff" stroke-linecap="round" stroke-width="1" x1="317.678" x2="323.097" y1="347.678" y2="339.567" /><line clip-path="url(#border_clip)" stroke="#0000ff" stroke-linecap="round" stroke-width="1" x1="323.097" x2="325.0" y1="339.567" y2="330.0" /><line clip-path="url(#border_clip)" stroke="#0000ff" stroke-linecap="round" stroke-width="1" x1="325.0" x2="323.097" y1="330.0" y2="320.433" /><line clip-path="url(#border_clip)" stroke="#0000ff" stroke-linecap="round" stroke-width="1" x1="323.097" x2="317.678" y1="320.433" y2="312.322" /><line clip-path="url(#border_clip)" stroke="#0000ff" stroke-linecap="round" stroke-width="1" x1="317.678" x2="309.567" y1="312.322" y2="306.903" /><line clip-path="url(#border_clip)" stroke="#0000ff" stroke-linecap="round" stroke-width="1" x1="309.567" x2="300.0" y1="306.903" y2="305.0" /><line clip-path="url(#border_clip)" stroke="#0000ff" stroke-linecap="round" stroke-width="1" x1="300.0" x2="290.433" y1="305.0" y2="306.903" /><line clip-path="url(#border_clip)" stroke="#0000ff" stroke-linecap="round" stroke-width="1" x1="290.433" x2="282.322" y1="306.903" y2="312.322" /><line clip-path="url(#border_clip)" stroke="#0000ff" stroke-linecap="round" stroke-width="1" x1="282.322" x2="276.903" y1="312.322" y2="320.433" /><line clip-path="url(#border_clip)" stroke="#0000ff" stroke-linecap="round" stroke-width="1" x1="276.903" x2="275.0" y1="320.433" y2="330.0" /><line clip-path="url(#border_clip)" stroke="#0000ff" stroke-linecap="round" stroke-width="1" x1="275.0" x2="276.903" y1="330.0" y2="339.567" /><line clip-path="url(#border_clip)" stroke="#0000ff" stroke-linecap="round" stroke-width="1" x1="276.903" x2="282.322" y1="339.567" y2="347.678" /><line clip-path="url(#border_clip)" stroke="#0000ff" stroke-linecap="round" stroke-width="1" x1="282.322" x2="290.433" y1="347.678" y2="353.097" /><line clip-path="url(#border_clip)" stroke="#0000ff" stroke-linecap="round" stroke-width="1" x1="290.433" x2="300.0" y1="353.097" y2="355.0" /><line clip-path="url(#border_clip)" stroke="#0000ff" stroke-linecap="round" stroke-width="1" x1="300.0" x2="300.0" y1="355.0" y2="355.0" /><text clip-path="url(#border_clip)" fill="#ffffff" style="font-family: Arial; font-size: 13.2; font-style: normal;" text-anchor="start" x="285.0" y="338.4">KJ65</text><text clip-path="url(#border_clip)" fill="#000000" style="font-family: Arial; font-size: 13.2; font-style: normal;" text-anchor="start" x="90.0" y="351.4">Laculis euis mod In hac hab</text><line clip-path="url(#border_clip)" stroke="#000000" stroke-linecap="round" stroke-width="1" x1="80.0" x2="80.0" y1="310.0" y2="310.0" /><line clip-path="url(#border_clip)" stroke="#000000" stroke-linecap="round" stroke-width="1" x1="80.0" x2="260.0" y1="310.0" y2="310.0" /><line clip-path="url(#border_clip)" stroke="#000000" stroke-linecap="round" stroke-width="1" x1="260.0" x2="260.0" y1="310.0" y2="300.0" /><line clip-path="url(#border_clip)" stroke="#000000" stroke-linecap="round" stroke-width="1" x1="260.0" x2="80.0" y1="300.0" y2="300.0" /><line clip-path="url(#border_clip)" stroke="#000000" stroke-linecap="round" stroke-width="1" x1="80.0" x2="80.0" y1="300.0" y2="310.0" /><polygon clip-path="url(#border_clip)" fill="#00ff00" fill-rule="evenodd" points="80.0,310.0 260.0,310.0 260.0,300.0 80.0,300.0 80.0,310.0" /><line clip-path="url(#border_clip)" stroke="#000000" stroke-linecap="round" stroke-width="1" x1="80.0" x2="260.0" y1="310.0" y2="310.0" /><line clip-path="url(#border_clip)" stroke="#000000" stroke-linecap="round" stroke-width="1" x1="260.0" x2="260.0" y1="310.0" y2="300.0" /><line clip-path="url(#border_clip)" stroke="#000000" stroke-linecap="round" stroke-width="1" x1="260.0" x2="80.0" y1="300.0" y2="300.0" /><line clip-path="url(#border_clip)" stroke="#000000" stroke-linecap="round" stroke-width="1" x1="80.0" x2="80.0" y1="300.0" y2="310.0" /><line clip-path="url(#border_clip)" stroke="#000000" stroke-linecap="round" stroke-width="1" x1="80.0" x2="80.0" y1="310.0" y2="310.0" /><line clip-path="url(#border_clip)" stroke="#000000" stroke-linecap="round" stroke-width="1" x1="80.0" x2="260.0" y1="370.0" y2="370.0" /><line clip-path="url(#border_clip)" stroke="#000000" stroke-linecap="round" stroke-width="1" x1="260.0" x2="260.0" y1="370.0" y2="320.0" /><line clip-path="url(#border_clip)" stroke="#000000" stroke-linecap="round" stroke-width="1" x1="260.0" x2="80.0" y1="320.0" y2="320.0" /><line clip-path="url(#border_clip)" stroke="#000000" stroke-linecap="round" stroke-width="1" x1="80.0" x2="80.0" y1="320.0" y2="370.0" /></svg>