<?xml version="1.0" encoding="utf-8" ?>
<svg baseProfile="full" height="500px" version="1.1" width="500px" xmlns="http://www.w3.org/2000/svg" xmlns:ev="http://www.w3.org/2001/xml-events" xmlns:xlink="http://www.w3.org/1999/xlink"><defs><clipPath id="border_clip"><rect height="500" width="500" x="0" y="0" /></clipPath></defs><rect fill="white" height="100%" width="100%" x="0" y="0" /><line stroke="#0f0" stroke-width="7" x1="440" x2="1180" y1="280" y2="280" /><line clip-path="url(#border_clip)" stroke="#000000" stroke-linecap="round" stroke-width="1" x1="250.0" x2="300.0" y1="250.0" y2="250.0" /><line clip-path="url(#border_clip)" stroke="#000000" stroke-linecap="round" stroke-width="1" x1="300.0" x2="300.0" y1="250.0" y2="200.0" /><line clip-path="url(#border_clip)" stroke="#000000" stroke-linecap="round" stroke-width="1" x1="300.0" x2="250.0" y1="200.0" y2="200.0" /><line clip-path="url(#border_clip)" stroke="#000000" stroke-linecap="round" stroke-width="1" x1="250.0" x2="250.0" y1="200.0" y2="250.0" /><line clip-path="url(#border_clip)" stroke="#000000" stroke-linecap="round" stroke-width="1" x1="250.0" x2="273.411" y1="250.0" y2="247.694" /><line clip-path="url(#border_clip)" stroke="#000000" stroke-linecap="round" stroke-width="1" x1="273.411" x2="295.922" y1="247.694" y2="240.866" /><line clip-path="url(#border_clip)" stroke="#000000" stroke-linecap="round" stroke-width="1" x1="295.922" x2="316.668" y1="240.866" y2="229.776" /><line clip-path="url(#border_clip)" stroke="#000000" stroke-linecap="round" stroke-width="1" x1="316.668" x2="334.853" y1="229.776" y2="214.853" /><line clip-path="url(#border_clip)" stroke="#000000" stroke-linecap="round" stroke-width="1" x1="334.853" x2="349.776" y1="214.853" y2="196.668" /><line clip-path="url(#border_clip)" stroke="#000000" stroke-linecap="round" stroke-width="1" x1="349.776" x2="360.866" y1="196.668" y2="175.922" /><line clip-path="url(#border_clip)" stroke="#000000" stroke-linecap="round" stroke-width="1" x1="360.866" x2="367.694" y1="175.922" y2="153.411" /><line clip-path="url(#border_clip)" stroke="#000000" stroke-linecap="round" stroke-width="1" x1="367.694" x2="370.0" y1="153.411" y2="130.0" /><line clip-path="url(#border_clip)" stroke="#000000" stroke-linecap="round" stroke-width="1" x1="370.0" x2="367.694" y1="130.0" y2="106.589" /><line clip-path="url(#border_clip)" stroke="#000000" stroke-linecap="round" stroke-width="1" x1="367.694" x2="360.866" y1="106.589" y2="84.078" /><line clip-path="url(#border_clip)" stroke="#000000" stroke-linecap="round" stroke-width="1" x1="360.866" x2="349.776" y1="84.078" y2="63.332" /><line clip-path="url(#border_clip)" stroke="#000000" stroke-linecap="round" stroke-width="1" x1="349.776" x2="334.853" y1="63.332" y2="45.147" /><line clip-path="url(#border_clip)" stroke="#000000" stroke-linecap="round" stroke-width="1" x1="334.853" x2="316.668" y1="45.147" y2="30.224" /><line clip-path="url(#border_clip)" stroke="#000000" stroke-linecap="round" stroke-width="1" x1="316.668" x2="295.922" y1="30.224" y2="19.134" /><line clip-path="url(#border_clip)" stroke="#000000" stroke-linecap="round" stroke-width="1" x1="295.922" x2="273.411" y1="19.134" y2="12.306" /><line clip-path="url(#border_clip)" stroke="#000000" stroke-linecap="round" stroke-width="1" x1="273.411" x2="250.0" y1="12.306" y2="10.0" /><line clip-path="url(#border_clip)" stroke="#000000" stroke-linecap="round" stroke-width="1" x1="250.0" x2="226.589" y1="10.0" y2="12.306" /><line clip-path="url(#border_clip)" stroke="#000000" stroke-linecap="round" stroke-width="1" x1="226.589" x2="204.078" y1="12.306" y2="19.134" /><line clip-path="url(#border_clip)" stroke="#000000" stroke-linecap="round" stroke-width="1" x1="204.078" x2="183.332" y1="19.134" y2="30.224" /><line clip-path="url(#border_clip)" stroke="#000000" stroke-linecap="round" stroke-width="1" x1="183.332" x2="165.147" y1="30.224" y2="45.147" /><line clip-path="url(#border_clip)" stroke="#000000" stroke-linecap="round" stroke-width="1" x1="165.147" x2="150.224" y1="45.147" y2="63.332" /><line clip-path="url(#border_clip)" stroke="#000000" stroke-linecap="round" stroke-width="1" x1="150.224" x2="139.134" y1="63.332" y2="84.078" /><line clip-path="url(#border_clip)" stroke="#000000" stroke-linecap="round" stroke-width="1" x1="139.134" x2="132.306" y1="84.078" y2="106.589" /><line clip-path="url(#border_clip)" stroke="#000000" stroke-linecap="round" stroke-width="1" x1="132.306" x2="130.0" y1="106.589" y2="130.0" /><line clip-path="url(#border_clip)" stroke="#000000" stroke-linecap="round" stroke-width="1" x1="130.0" x2="132.306" y1="130.0" y2="153.411" /><line clip-path="url(#border_clip)" stroke="#000000" stroke-linecap="round" stroke-width="1" x1="132.306" x2="139.134" y1="153.411" y2="175.922" /><line clip-path="url(#border_clip)" stroke="#000000" stroke-linecap="round" stroke-width="1" x1="139.134" x2="150.224" y1="175.922" y2="196.668" /><line clip-path="url(#border_clip)" stroke="#000000" stroke-linecap="round" stroke-width="1" x1="150.224" x2="165.147" y1="196.668" y2="214.853" /><line clip-path="url(#border_clip)" stroke="#000000" stroke-linecap="round" stroke-width="1" x1="165.147" x2="183.332" y1="214.853" y2="229.776" /><line clip-path="url(#border_clip)" stroke="#000000" stroke-linecap="round" stroke-width="1" x1="183.332" x2="204.078" y1="229.776" y2="240.866" /><line clip-path="url(#border_clip)" stroke="#000000" stroke-linecap="round" stroke-width="1" x1="204.078" x2="226.589" y1="240.866" y2="247.694" /><line clip-path="url(#border_clip)" stroke="#000000" stroke-linecap="round" stroke-width="1" x1="226.589" x2="250.0" y1="247.694" y2="250.0" /></svg>